<?xml version="1.0" encoding="utf-8"?>
<!-- Generator: Adobe Illustrator 16.0.0, SVG Export Plug-In . SVG Version: 6.00 Build 0)  -->
<!DOCTYPE svg PUBLIC "-//W3C//DTD SVG 1.0//EN" "http://www.w3.org/TR/2001/REC-SVG-20010904/DTD/svg10.dtd">
<svg version="1.0" id="Layer_1" xmlns="http://www.w3.org/2000/svg" xmlns:xlink="http://www.w3.org/1999/xlink" x="0px" y="0px"
	 width="1000px" height="1000px" viewBox="0 0 1000 1000" enable-background="new 0 0 1000 1000" xml:space="preserve">
<path fill="#FFFFFF" d="M500,1000c68.984,0,124.941-55.957,124.941-125H375.059C375.059,944.043,431.016,1000,500,1000z
	 M920.684,707.598c-37.734-40.547-108.34-101.543-108.34-301.348c0-151.758-106.406-273.242-249.883-303.047V62.5
	C562.461,27.988,534.492,0,500,0s-62.461,27.988-62.461,62.5v40.703C294.063,133.008,187.656,254.492,187.656,406.25
	c0,199.805-70.605,260.801-108.34,301.348C67.598,720.195,62.402,735.254,62.5,750c0.215,32.031,25.352,62.5,62.695,62.5h749.609
	c37.344,0,62.5-30.469,62.695-62.5C937.598,735.254,932.402,720.176,920.684,707.598z"/>
</svg>
