<svg id="svg" xmlns="http://www.w3.org/2000/svg" xmlns:xlink="http://www.w3.org/1999/xlink" width="400" height="400" viewBox="0, 0, 400,400"><g id="svgg"><path id="path0" d="M6.300 175.090 C 5.475 175.177,4.800 175.417,4.800 175.624 C 4.800 175.831,4.564 176.000,4.275 176.000 C 3.727 176.000,2.739 176.847,1.422 178.447 C 0.180 179.955,0.048 182.030,0.048 200.000 C 0.048 218.232,0.180 220.168,1.527 221.614 C 2.007 222.129,2.400 222.666,2.400 222.808 C 2.400 222.949,2.895 223.320,3.500 223.632 C 4.105 223.944,4.728 224.379,4.885 224.599 C 5.346 225.245,394.885 225.146,395.100 224.500 C 395.192 224.225,395.494 224.000,395.772 224.000 C 396.573 224.000,399.162 221.278,399.496 220.084 C 399.893 218.669,399.893 181.331,399.496 179.916 C 399.162 178.722,396.573 176.000,395.772 176.000 C 395.494 176.000,395.192 175.775,395.100 175.500 C 394.942 175.027,10.735 174.622,6.300 175.090 " stroke="none" fill="#fefefe" fill-rule="evenodd"></path><path id="path1" d="" stroke="none" fill="#100fcfc" fill-rule="evenodd"></path><path id="path2" d="" stroke="none" fill="#100fcfc" fill-rule="evenodd"></path><path id="path3" d="" stroke="none" fill="#100fcfc" fill-rule="evenodd"></path><path id="path4" d="" stroke="none" fill="#100fcfc" fill-rule="evenodd"></path></g></svg>