<?xml version="1.0" encoding="utf-8"?>
<!-- Generator: Adobe Illustrator 16.0.0, SVG Export Plug-In . SVG Version: 6.00 Build 0)  -->
<!DOCTYPE svg PUBLIC "-//W3C//DTD SVG 1.0//EN" "http://www.w3.org/TR/2001/REC-SVG-20010904/DTD/svg10.dtd">
<svg version="1.0" id="Layer_1" xmlns="http://www.w3.org/2000/svg" xmlns:xlink="http://www.w3.org/1999/xlink" x="0px" y="0px"
	 width="1000px" height="1000px" viewBox="0 0 1000 1000" enable-background="new 0 0 1000 1000" xml:space="preserve">
<path fill="#FFFFFF" d="M996.418,37.417c5.301,5.3,3.519,15.679-3.979,23.177L60.593,992.439
	c-7.498,7.499-17.875,9.279-23.175,3.979L3.582,962.581c-5.301-5.301-3.52-15.676,3.979-23.175L939.406,7.561
	c7.497-7.498,17.874-9.281,23.175-3.98L996.418,37.417z"/>
<path fill="#FFFFFF" d="M962.581,996.418c-5.3,5.301-15.679,3.52-23.177-3.979L7.56,60.594c-7.5-7.498-9.279-17.875-3.979-23.175
	L37.417,3.582c5.301-5.301,15.676-3.52,23.176,3.979l931.845,931.846c7.498,7.498,9.281,17.875,3.98,23.176L962.581,996.418z"/>
</svg>
