<svg id="svg" xmlns="http://www.w3.org/2000/svg" xmlns:xlink="http://www.w3.org/1999/xlink" width="400" height="400" viewBox="0, 0, 400,400"><g id="svgg"><path id="path0" d="M49.400 0.315 C 48.300 0.378,46.833 0.693,46.140 1.015 C 45.446 1.337,44.679 1.600,44.434 1.600 C 43.618 1.600,39.198 4.287,38.680 5.099 C 38.504 5.374,38.143 5.600,37.878 5.600 C 37.251 5.600,5.600 37.254,5.600 37.882 C 5.600 38.145,5.374 38.504,5.099 38.680 C 4.252 39.221,1.602 43.622,1.598 44.495 C 1.596 44.773,1.320 45.527,0.984 46.171 C 0.296 47.491,0.094 54.531,0.721 55.331 C 0.924 55.589,1.216 56.340,1.371 57.000 C 1.658 58.226,3.222 61.616,4.107 62.932 C 4.378 63.335,35.155 94.227,72.500 131.581 C 109.845 168.935,140.400 199.744,140.400 200.046 C 140.400 200.348,109.637 231.376,72.039 268.997 C -0.159 341.238,2.415 338.543,1.371 343.000 C 1.216 343.660,0.924 344.411,0.721 344.669 C 0.094 345.469,0.296 352.509,0.984 353.829 C 1.320 354.473,1.596 355.227,1.598 355.505 C 1.602 356.378,4.252 360.779,5.099 361.320 C 5.374 361.496,5.600 361.857,5.600 362.122 C 5.600 362.749,37.254 394.400,37.882 394.400 C 38.145 394.400,38.504 394.625,38.680 394.900 C 39.395 396.018,44.283 398.800,45.532 398.800 C 45.922 398.800,46.427 398.987,46.655 399.215 C 47.211 399.771,55.342 399.775,55.527 399.220 C 55.604 398.989,56.147 398.797,56.733 398.794 C 57.320 398.791,58.250 398.532,58.800 398.218 C 59.350 397.905,60.340 397.371,61.000 397.032 C 61.660 396.693,62.538 396.187,62.952 395.908 C 63.366 395.629,94.272 364.845,131.632 327.500 C 168.993 290.155,199.773 259.600,200.034 259.600 C 200.294 259.600,231.069 290.155,268.421 327.500 C 305.774 364.845,336.665 395.622,337.068 395.893 C 338.385 396.779,341.774 398.342,343.000 398.629 C 343.660 398.784,344.418 399.082,344.685 399.292 C 345.363 399.825,352.782 399.778,353.324 399.236 C 353.564 398.996,354.004 398.800,354.302 398.800 C 355.624 398.800,360.591 396.040,361.320 394.900 C 361.496 394.625,361.857 394.400,362.122 394.400 C 362.749 394.400,394.400 362.746,394.400 362.118 C 394.400 361.855,394.625 361.496,394.900 361.320 C 396.040 360.591,398.800 355.624,398.800 354.302 C 398.800 354.004,398.996 353.564,399.236 353.324 C 399.778 352.782,399.825 345.363,399.292 344.685 C 399.082 344.418,398.784 343.660,398.629 343.000 C 398.342 341.774,396.779 338.385,395.893 337.068 C 395.622 336.665,364.845 305.774,327.500 268.421 C 290.155 231.069,259.600 200.294,259.600 200.034 C 259.600 199.773,290.155 168.993,327.500 131.632 C 364.845 94.272,395.622 63.366,395.893 62.952 C 396.798 61.570,398.345 58.214,398.636 57.000 C 398.794 56.340,399.084 55.694,399.281 55.564 C 399.784 55.233,399.724 47.164,399.215 46.655 C 398.987 46.427,398.800 45.996,398.800 45.698 C 398.800 44.376,396.040 39.409,394.900 38.680 C 394.625 38.504,394.400 38.143,394.400 37.878 C 394.400 37.251,362.746 5.600,362.118 5.600 C 361.855 5.600,361.496 5.374,361.320 5.099 C 360.779 4.252,356.378 1.602,355.505 1.598 C 355.227 1.596,354.460 1.311,353.800 0.965 C 352.430 0.245,345.503 0.058,344.685 0.718 C 344.418 0.934,343.436 1.236,342.502 1.390 C 341.568 1.544,340.701 1.837,340.575 2.041 C 340.449 2.245,339.683 2.686,338.873 3.021 C 337.833 3.452,317.289 23.736,268.997 72.015 C 231.376 109.627,200.348 140.400,200.046 140.400 C 199.745 140.400,169.198 110.115,132.164 73.100 C 56.199 -2.827,61.751 2.471,57.000 1.368 C 56.340 1.215,55.620 0.954,55.400 0.788 C 54.885 0.399,51.954 0.168,49.400 0.315 " stroke="none" fill="#fcfcfc" fill-rule="evenodd"></path><path id="path1" d="" stroke="none" fill="#100fcfc" fill-rule="evenodd"></path><path id="path2" d="" stroke="none" fill="#100fcfc" fill-rule="evenodd"></path><path id="path3" d="" stroke="none" fill="#100fcfc" fill-rule="evenodd"></path><path id="path4" d="" stroke="none" fill="#100fcfc" fill-rule="evenodd"></path></g></svg>