<?xml version="1.0" encoding="utf-8"?>
<!-- Generator: Adobe Illustrator 16.0.0, SVG Export Plug-In . SVG Version: 6.00 Build 0)  -->
<!DOCTYPE svg PUBLIC "-//W3C//DTD SVG 1.0//EN" "http://www.w3.org/TR/2001/REC-SVG-20010904/DTD/svg10.dtd">
<svg version="1.0" id="Layer_1" xmlns="http://www.w3.org/2000/svg" xmlns:xlink="http://www.w3.org/1999/xlink" x="0px" y="0px"
	 width="1000px" height="1000px" viewBox="0 0 1000 1000" enable-background="new 0 0 1000 1000" xml:space="preserve">
<path fill="#FFFFFF" d="M892.911-1H107.589C48.445-1,0.5,47.185,0.5,106.625v789.25c0,59.44,47.945,107.625,107.089,107.625h785.322
	c59.145,0,107.089-48.185,107.089-107.625v-789.25C1000,47.185,952.056-1,892.911-1z M892.911,895.875H107.589v-789.25h785.322
	V895.875z M812.896,353.884l-385.05,383.872c-10.498,10.465-27.448,10.397-37.861-0.152L187.451,532.407
	c-10.413-10.549-10.345-27.586,0.154-38.052l50.687-50.529c10.497-10.464,27.448-10.397,37.86,0.155L409.55,579.133l315.359-314.391
	c10.498-10.464,27.449-10.397,37.861,0.153l50.278,50.938C823.461,326.384,823.395,343.42,812.896,353.884L812.896,353.884z"/>
</svg>
