<?xml version="1.0" encoding="utf-8"?>
<!-- Generator: Adobe Illustrator 16.0.0, SVG Export Plug-In . SVG Version: 6.00 Build 0)  -->
<!DOCTYPE svg PUBLIC "-//W3C//DTD SVG 1.0//EN" "http://www.w3.org/TR/2001/REC-SVG-20010904/DTD/svg10.dtd">
<svg version="1.0" id="Layer_1" xmlns="http://www.w3.org/2000/svg" xmlns:xlink="http://www.w3.org/1999/xlink" x="0px" y="0px"
	 width="1000px" height="1000px" viewBox="0 0 1000 1000" enable-background="new 0 0 1000 1000" xml:space="preserve">
<path fill="#FFFFFF" d="M894.25,1h-786.5C48.539,1,0.5,48.943,0.5,108.036v784.929C0.5,952.058,48.539,1000,107.75,1000h786.5
	c59.211,0,107.25-47.942,107.25-107.035V108.036C1001.5,48.943,953.461,1,894.25,1z M880.844,892.965H121.156
	c-7.374,0-13.407-6.021-13.407-13.38v-758.17c0-7.358,6.033-13.379,13.407-13.379h759.688c7.373,0,13.406,6.021,13.406,13.379
	v758.17C894.25,886.943,888.217,892.965,880.844,892.965z"/>
</svg>
