<svg xmlns="http://www.w3.org/2000/svg" viewBox="0 0 477.9 477"><title>Paladin Extensions Logo</title><path d="M400.1,496.6l-3.2-.2L395,496a25.8,25.8,0,0,1-14.3-11.2H380c-2.2-.2-53.2-6.6-89.1-46.1a14.8,14.8,0,0,1-3.6-6.9c-4.4-19.7-16.4-49.5-27.4-54a14.8,14.8,0,0,1-8.9-11.6h-.1a19.9,19.9,0,0,0-4.1.5,13.7,13.7,0,0,1-2.9.2,14.9,14.9,0,0,1-7.7-27.8l10.2-6.2a16.9,16.9,0,0,1,6.2-2.1c.5,0,2.3-.2,5.1-.2a65.4,65.4,0,0,1,9.1.6,15,15,0,0,1-3.4-14.9l6.7-21.2a14.9,14.9,0,0,1,7.9-9.1l1.9-.7c-2.2-5.2-4.1-10.6-4.5-15h0a14.8,14.8,0,0,1-5.2-7.1c-2.6-7.6-5.1-29.3-1.3-50.6a15,15,0,0,1-6.5-18.8c3-7.3,6.2-14,9.4-20.1-14.6,7.2-26.4,9.3-35.2,9.3a40.9,40.9,0,0,1-6.3-.4c-5.8,12.8-6.5,28.9-6.2,35.2,2.7,37.5-3.1,64.3-17.4,79.7a39.9,39.9,0,0,1-17.8,11.3c-20.6,26.5-42.4,32.2-57.4,32.2-24.3,0-43.6-14.6-51.2-21.4-29.9-8-45.7-25.6-53.8-39.2A80.7,80.7,0,0,1,16,250.5C13.1,233,17.5,197.4,54.8,184a50.4,50.4,0,0,1,16.9-3.3c9.6,0,17.7,3.6,23.6,10.4,11.9,13.8,9.3,35.7,8.7,39.9a15,15,0,0,1-11.1,12.3,15.8,15.8,0,0,1-3.8.5,14.7,14.7,0,0,1-11.8-5.9,32.2,32.2,0,0,0-2.3-2.5,12.3,12.3,0,0,0-.9,6.6c.6,6,3.4,7.9,5.2,8.5h.3a37.1,37.1,0,0,0,8.5,1c18.7,0,25.4-19.1,27-24.7-2.8-65.3,6.8-115.2,28.4-148.4,13-19.8,27.1-28.3,34.6-31.7,22.7-26.2,56-27.2,57.4-27.2h1.8c26.7,0,48,8.6,63.3,25.6,22.6,25.2,24.2,61.4,23.8,76.6a75,75,0,0,1,26.6-4.9c36.7,0,66,26.1,67.2,27.2a18,18,0,0,1,1.9,2,15.6,15.6,0,0,1,9.2,5.2c26.9,32,32.6,73.2,33.8,89l10.7,10.5a15,15,0,0,1,4.4,10.9l2.7.5a15,15,0,0,1,10,22.9c-31.7,49.3-71.7,78.6-73.3,79.8a15.3,15.3,0,0,1-8.8,2.8,14.8,14.8,0,0,1-11.3-5.1l-3.2-3.7a9.3,9.3,0,0,1-2.3.2,15.2,15.2,0,0,1-9.7-3.5l-6-5.1a14.6,14.6,0,0,1,2.1,11.2,13.2,13.2,0,0,1-1.3,3.8h.1a15.2,15.2,0,0,1,12.8,7,45,45,0,0,1,2.8,5.8,14.9,14.9,0,0,1,5.5-1,14.6,14.6,0,0,1,10.2,4c33.1,30.9,17.6,67,16.9,68.5a12.8,12.8,0,0,1-1.6,2.8,52.6,52.6,0,0,1,.2,17.9C422.3,483.5,414.3,496.6,400.1,496.6ZM362.7,342.4a42.5,42.5,0,0,0,5.3,1.9l1.7.6-6.1-5.2A12.2,12.2,0,0,1,362.7,342.4Zm-36.5-44.3a14.8,14.8,0,0,1,4,3.5,27.6,27.6,0,0,1,.8-2.7c-10.6-11.3-11.8-22.5-11.9-26.1l-.5-10.7a.1.1,0,0,1-.1-.1,24,24,0,0,1-1.2,3.8l-4.1,8.4,1.7,13.6A19.3,19.3,0,0,1,326.2,298.1Z" transform="translate(-15.3 -19.6)" style="fill-rule:evenodd"/><path d="M421,476.4l-28.9,10.4-30.5-12.6-30-12.1-25.5-18.4-12.4-15.3-4.6-25.5s-11.3-15.7-11.4-18-5.9-9.8-9.1-12.1-11.7-9.4-12.6-11.2-7.7-5.4-8.8-6.3a40.2,40.2,0,0,1-3.3-3.5s2.4-7,6.3-6.6,9.4-4.1,11.9-4,11.3-3.1,11.8-4.8,2.9-7.3,2.4-8.5-1.5-10.4-1.5-10.4l7.1-16.7s1.1-4.9,3.8-7.7,0-10.7,0-14.6a65.1,65.1,0,0,0-3.8-17c-1.7-4-5.9-13.2-4.2-19.1s5-24.3,4.2-26.1,1.1-13.8,0-19.5-.6-11.3,3.8-18.1-3.8-8.6-3.8-8.6l-9.7-4.9-25,2.4-14.1,3.8H223l-9.5,13.4v23.9l-3.7,27.2-8.6,32.9-12.5,23.8-14,15.5-22.1,15s-28.6-.6-29.9.6-30-2.3-30-2.3l-9.9-15.9-18.7-8.7L49,288.2l-12.8-28-5.1-27.4,11.8-11.5s13.4,13.6,14.8,14.6,5.6,12.8,5.6,12.8l14.6,13.7,25.1,4.4s16.2-6.2,17.5-7.5,2.2-23.4,2.2-23.4V218.5l1.8-24.8,7.6-50.1,4.1-20.4L143.8,96l30.9-22s26.8-19.7,27.8-20.1,40.3-5.8,44.7-7.7,34.7,15.3,34.7,15.3L297,74l13,18.9v34.9s8.4,5.4,13.8,6.8,37.8-1.7,37.8-1.7,22.4,7.4,29.3,9.5S418,155.2,418,155.2l10.2,20.5,12.7,37.8,7.4,29.5,6.4,32,17.5,15-16.6,24.2-21,25.3-22.9,1.7s-28.2-13-29.6-13.3S370,345.5,370,345.5s.4,7.6.4,10.3-3.5,8-3.5,8l7.4,12.9,11.1,6.7,12.9,5.3,9.9,6.1,4.9,21.4,3.6,10.6,2.3,13.1-1,16Z" transform="translate(-15.3 -19.6)"/><path d="M89.1,228.8s6.6-43.6-29.2-30.7-29,50.4-29,50.4,3.8,45.3,56.9,57.4c0,0,48.6,51.6,92.6-10.8,0,0,34.4.9,28.8-76.5,0,0-2.1-32.8,14.2-53.4,0,0,29,17.8,85.7-37.8,0,0,10.2-93.9-73.3-92.8,0,0-30.1.6-48.5,24.7,0,0-64.2,16.7-57.1,169,0,0-9.6,46.8-53.9,36.9,0,0-15.2-2.8-17.2-21.6S73.6,208.5,89.1,228.8Z" transform="translate(-15.3 -19.6)" style="fill:#2164af;fill-rule:evenodd"/><path d="M313.2,331.7s29.9,20.9,50.5,27c0,0-18.2-2.1-49.7-18.3Z" transform="translate(-15.3 -19.6)" style="fill:#2164af;fill-rule:evenodd"/><path d="M318.5,311l.2,6.8s7.8,8.8,30.2,18.6C348.9,336.4,324.8,319.2,318.5,311Z" transform="translate(-15.3 -19.6)" style="fill:#2164af;fill-rule:evenodd"/><path d="M313.6,308.1s-2.3-4-5.9-2.4-2.6,5.5-2.6,5.5-3.7-6.2,2-8.8S313.6,308.1,313.6,308.1Z" transform="translate(-15.3 -19.6)" style="fill:#2164af;fill-rule:evenodd"/><path d="M306.1,329.3s-3.2-3.5-6.1-2.2-2.4,5.5-2.4,5.5-4.8-5.8,2-8.8S306.1,329.3,306.1,329.3Z" transform="translate(-15.3 -19.6)" style="fill:#2164af;fill-rule:evenodd"/><path d="M287.1,326.4l-4.7-6.8,4.2-16.4h7.1l-9.3-3.7-6.7,21.2Z" transform="translate(-15.3 -19.6)" style="fill:#2164af;fill-rule:evenodd"/><path d="M300.4,292.6s-9.4-16.4-10.1-23.8l13.4-9.5-5.9,12.3Z" transform="translate(-15.3 -19.6)" style="fill:#2164af;fill-rule:evenodd"/><path d="M276.3,199.4s40.2-88.6,131.9-44.2C408.2,155.2,325,80.2,276.3,199.4Z" transform="translate(-15.3 -19.6)" style="fill:#2164af;fill-rule:evenodd"/><path d="M284.4,258.2l24.9-16.8-17.4,2.2s-2.3-81,51.9-49.7a45.3,45.3,0,0,1-9.7,7.7s31.9,6.1,63-11.9c0,0-14.1,19.5-45.6,25.2l7.9,6.2s15.2-5.7,17.4-7.6a73.6,73.6,0,0,1-13.1,11.3s17.9,12.4,32.6,17l-4.5-17.6L380.1,220l10.7-3.4,23.7,5.6a51.8,51.8,0,0,0,6.7-16.6s1.7,11,.4,19.4c0,0,15.1,4.6,17.6,7.3l1.5,13.1-26.4.2s13.6,11.9,48.9,15.9l-14.8-14.6s-.4-50.1-30.6-85.9l-1.5,9.7,3.9,15s-16.9-33.3-54.7-35.3-62,22-74.2,42.6S281.2,249.1,284.4,258.2Z" transform="translate(-15.3 -19.6)" style="fill:#2164af;fill-rule:evenodd"/><path d="M312.6,223s4.4-14.9,17.2-14.3S349,222.4,347.4,231s-6.5,18.2-19.4,17.7-14.6-13.1-14.6-13.1,6.7,8.4,17,6.2,10.6-17.1,6.7-21S325.4,211,312.6,223Z" transform="translate(-15.3 -19.6)" style="fill:#2164af;fill-rule:evenodd"/><path d="M325.2,221.3a9.9,9.9,0,0,0-4.1,10.4c1.5,6.8,9.9,5.5,9.9,5.5s-11.9,6.2-14-5.1S325.2,221.3,325.2,221.3Z" transform="translate(-15.3 -19.6)" style="fill:#2164af;fill-rule:evenodd"/><path d="M352.1,227s-8.1,17-19,25.4l1,19.9s-.1,9.7,10.7,19,26.4,25.2,26.4,25.2L345,304.3l47,39.8L380.1,320l28.7,32.7s39-28.3,69.4-75.7C478.2,277,394.8,262,352.1,227Z" transform="translate(-15.3 -19.6)" style="fill:#2164af;fill-rule:evenodd"/><path d="M386.2,397.6s7.3,11.5,5.4,25.2c0,0-35.8-5.7-74.2-52.6,0,0,31.7,30.5,68.1,38.6Z" transform="translate(-15.3 -19.6)" style="fill:#2164af;fill-rule:evenodd"/><path d="M377.2,380.5s5.2,8.3,3.9,18.2c0,0-25.9-4.1-53.7-38,0,0,23,22,49.3,27.9Z" transform="translate(-15.3 -19.6)" style="fill:#2164af;fill-rule:evenodd"/><path d="M399.1,481.5s-10.4-2.9-7.3-18.5,9.7-16,11.4-15.3,8.5,3.3,5.9,20.8C409.1,468.5,407.4,482.7,399.1,481.5Z" transform="translate(-15.3 -19.6)" style="fill:#2164af;fill-rule:evenodd"/><path d="M399.3,437.6s10.1-2,12.4,6.1c0,0,12.2-27.5-13.4-51.4C398.3,392.3,409.9,410.7,399.3,437.6Z" transform="translate(-15.3 -19.6)" style="fill:#2164af;fill-rule:evenodd"/><path d="M389.4,442a35.4,35.4,0,0,0-6.5,18.3s-10.7,1.2-23.9-4.8c0,0,11.9,11.4,22.7,14.3,0,0-47.1-5.5-79.7-41.3,0,0-12.2-54.8-36.4-64.7,0,0,6-.4,14.6,4.2,0,0-12.4-20.9-36.3-16.2l10.3-6.1s50.7-5.4,68.3,51c0,0-8.8-.8-21.7-9.7C300.8,387,311.3,423.4,389.4,442Z" transform="translate(-15.3 -19.6)" style="fill:#2164af;fill-rule:evenodd"/><path d="M309.1,127.3a125.3,125.3,0,0,0-1.2-29.5L280.8,47.4a53.4,53.4,0,0,0-8.7-5.4l-21.9-6.6a93.3,93.3,0,0,0-14.4-.8,59.8,59.8,0,0,0-8,1C233.6,36.5,290.1,47.8,309.1,127.3Z" transform="translate(-15.3 -19.6)" style="fill:#6496c8"/><path d="M92.7,293.5c51.3,50,80-6.2,80-6.2C139.6,328.1,92.7,293.5,92.7,293.5Z" transform="translate(-15.3 -19.6)" style="fill:#6496c8"/><path d="M294.9,187.4,290.5,199c5.3-9.5,27-37.4,49.8-24.1,25.5,14.9,47.3,9,47.3,9l7.9-10.8-15.9-20.4a61.1,61.1,0,0,0-14.1-2.3C331.1,148.5,307.9,168.3,294.9,187.4Z" transform="translate(-15.3 -19.6)" style="fill:#6496c8"/><path d="M390.9,216.7l23.6,5.5a51.8,51.8,0,0,0,6.7-16.6s1.7,11,.4,19.4l4.1,1.3,6.3-3.5,3.4-18.5L429.5,182l-1.3-6.3A103.4,103.4,0,0,0,417.8,161l-1.5,9.7,3.9,15a66.2,66.2,0,0,0-6.1-9.2C410.8,204.8,394.8,214.7,390.9,216.7Z" transform="translate(-15.3 -19.6)" style="fill:#6496c8"/><path d="M329.8,208.7c-12.8-.6-17.2,14.3-17.2,14.3,12.8-12,20.6-6.1,24.5-2.2s3.6,18.8-6.7,21l-2.2.3c2.5.3,12,1.1,17.1-4.3a33.4,33.4,0,0,0,2.1-6.8v-5.7C346.1,217.5,340,209.1,329.8,208.7Z" transform="translate(-15.3 -19.6)" style="fill:#6496c8"/><path d="M195.6,198.7s11.6,59.2-11.7,88.6C183.9,287.3,216.4,265.6,195.6,198.7Z" transform="translate(-15.3 -19.6)" style="fill:#6496c8"/><path d="M403.2,447.7c-1.6-.6-7.8-.3-11.1,13.6,2.8-4.9,12.7-20.2,17.5,3C410.5,450.6,404.8,448.4,403.2,447.7Z" transform="translate(-15.3 -19.6)" style="fill:#6496c8"/><path d="M389.4,442c-78.1-18.6-88.6-55-88.6-55h.1c-8.7-13-18.7-18.2-20.7-19.1h0c-8.6-4.6-14.6-4.2-14.6-4.2,16.7,6.8,27.6,34.8,32.8,51.7,16.4,19.8,48,33.6,48,33.6-6.1-6.2-10.9-17.1-10.9-17.1,15.3,12,43.2,19.2,48.8,20.6A34.4,34.4,0,0,1,389.4,442Z" transform="translate(-15.3 -19.6)" style="fill:#6496c8"/><polygon points="427.8 264.4 424 262.7 423.4 263.4 427.8 264.4" style="fill:#6496c8"/><path d="M288.9,132.9s5.2-34.2-38.7-28.3C250.2,104.6,284.1,105.4,288.9,132.9Z" transform="translate(-15.3 -19.6)" style="fill:#6496c8"/><path d="M451.8,312l12.8-24.4-1.6-1.1c-16,27.6-48.9,50.3-48.9,50.3l-2.4-7.7,6.5-10,24.2-35.3-3.1-1.1H439l-39.9,38.9L394.7,311l21-32.9,18.7,3,4.9,1.6,2.5.5-57.1-36a180.1,180.1,0,0,1-26.2-15.3c9,18,25.8,28.5,25.8,28.5l21.1,11.5h1.8l2.5.9-24.6,28.5a35.4,35.4,0,0,1-20-16.8c-.5,4.6,9.5,23.6,9.5,23.6l12.2,17.2,19.6,19.3h10.3l3.1-.8A310.8,310.8,0,0,0,451.8,312Z" transform="translate(-15.3 -19.6)" style="fill:#6496c8"/><path d="M141.9,174.7s11.2-39.8,55-49.3C196.9,125.4,145.4,122.9,141.9,174.7Z" transform="translate(-15.3 -19.6)" style="fill:#6496c8"/><path d="M245.5,124.3l8.3-.2,4.1.4,2.6.2s-66.3-24.4-61.6,69.6l.4-1.1v-2l.6-4.4,1.6-10.6,7.9-23,13-17.2,12.2-7.7Z" transform="translate(-15.3 -19.6)" style="fill:#6496c8"/><path d="M260.9,145.5a33.3,33.3,0,0,1-10.7,8.2c10.4-.4,11.9-4.4,11.9-4.4,2-5.1,11.8-6,11.8-6S265.2,140.2,260.9,145.5Z" transform="translate(-15.3 -19.6)" style="fill:#6496c8"/><path d="M151.3,203.4c-4.8,32.4-23.7,52.1-23.7,52.1C161,242.3,151.3,203.4,151.3,203.4Z" transform="translate(-15.3 -19.6)" style="fill:#6496c8"/><path d="M159.4,82c47.7-17.3,87.5,7.8,87.5,7.8-5.1-19-26.3-25.2-26.3-25.2l-47.1,2.5A79.2,79.2,0,0,0,159.4,82Z" transform="translate(-15.3 -19.6)" style="fill:#6496c8"/><path d="M351.5,214.9l7.9,6.2s13.9-5.3,17-7.3c4.4-3.9,19.4-17.6,20.7-24.1C397.1,189.7,383,209.2,351.5,214.9Z" transform="translate(-15.3 -19.6)" style="fill:#fff"/><path d="M350.7,150.9a76.1,76.1,0,0,0-15.8,4l13.8.3Z" transform="translate(-15.3 -19.6)" style="fill:#fff"/><path d="M329.8,208.7a13.6,13.6,0,0,0-9.6,3.1c4.6-.8,21.6-2,27,20.1a2.9,2.9,0,0,1,.2-.9C349,222.4,342.6,209.2,329.8,208.7Z" transform="translate(-15.3 -19.6)" style="fill:#fff"/><path d="M325.2,221.3s-10.4-.5-8.2,10.8,14,5.1,14,5.1-8.4,1.3-9.9-5.5A9.9,9.9,0,0,1,325.2,221.3Z" transform="translate(-15.3 -19.6)" style="fill:#fff"/><path d="M300,327.1c2.9-1.3,6.1,2.2,6.1,2.2s.3-8.5-6.5-5.5-2,8.8-2,8.8S297.1,328.4,300,327.1Z" transform="translate(-15.3 -19.6)" style="fill:#fff"/><path d="M348.1,240.1,343.4,258a28,28,0,0,0,4.6,22.7l6.3,7.3-1.8-6-3.4-10.4.2-25.1Z" transform="translate(-15.3 -19.6)" style="fill:#fff"/><path d="M261.9,124.9s-62.4-19.5-63,71.9C198.9,196.8,207.8,119.2,261.9,124.9Z" transform="translate(-15.3 -19.6)" style="fill:#fff"/><path d="M235.8,34.6a60.1,60.1,0,0,0-8.1,1c78.4,5.9,81.4,91.8,81.4,91.8S319.3,33.5,235.8,34.6Z" transform="translate(-15.3 -19.6)" style="fill:#fff"/><path d="M380.5,320.8l-.4-.8,28.7,32.7s7-5.1,17.4-14.5c-6.7,3.9-15.2,7.4-19.6,2.8,0,0-27.2-26.3-32.8-34.4A66.7,66.7,0,0,0,380.5,320.8Z" transform="translate(-15.3 -19.6)" style="fill:#fff"/><polygon points="399.4 317.7 397.4 306.4 425.4 267.7 385.9 304.6 399.4 317.7" style="fill:#fff"/><polygon points="384 301.8 382.6 291.8 396.4 263.1 373.5 290.9 384 301.8" style="fill:#fff"/><path d="M365.5,150.4h-.8l-3.5,5.4s43.9,6.6,23.3,29.1c0,0,13.8-1.2,20.8-17.6A63.5,63.5,0,0,0,365.5,150.4Z" transform="translate(-15.3 -19.6)" style="fill:#fff"/><path d="M309.3,148.5c16.7-8.1,59.5-23.6,98.1,6.4l.8.3S355.4,107.6,309.3,148.5Z" transform="translate(-15.3 -19.6)" style="fill:#fff"/><path d="M421.4,165.5c22.6,50.5,3.9,58.4.2,59.4h0s15.1,4.6,17.6,7.3l1.5,13.1-26.4.2s13.6,11.9,48.9,15.9l-14.8-14.6S448,200.9,421.4,165.5Z" transform="translate(-15.3 -19.6)" style="fill:#fff"/><path d="M166.1,74c40.8-14.2,70.3-.5,70.3-.5-12.7-14.2-49.1-14.2-49.1-14.2S177.5,61.9,166.1,74Z" transform="translate(-15.3 -19.6)" style="fill:#fff"/><path d="M478.2,277s-51.2-9.2-93.9-30c2,2.9,12.1,14.7,58.2,37l20.9,2.9a257.1,257.1,0,0,1-16.5,30.6A308.2,308.2,0,0,0,478.2,277Z" transform="translate(-15.3 -19.6)" style="fill:#fff"/><path d="M385.4,408.8c-33.8-7.6-63.8-34.6-67.6-38.2h-.1l.8,1c38.8,38.8,66.6,41.7,66.6,41.7Z" transform="translate(-15.3 -19.6)" style="fill:#fff"/><path d="M313.6,308.1s-.9-8.3-6.5-5.7-2,8.8-2,8.8-1.1-3.9,2.6-5.5S313.6,308.1,313.6,308.1Z" transform="translate(-15.3 -19.6)" style="fill:#fff"/><path d="M297.8,271.6l5.9-12.3-13.4,9.5c.7,7.4,10.1,23.8,10.1,23.8Z" transform="translate(-15.3 -19.6)" style="fill:#fff"/><path d="M284.4,258.2l24.9-16.8-17.4,2.2s-9-18.9,9.6-64.9A105.4,105.4,0,0,0,291.3,193C279.1,213.6,281.2,249.1,284.4,258.2Z" transform="translate(-15.3 -19.6)" style="fill:#fff"/><path d="M391.8,224.2,380.2,220h-.5l8.5,7,1.9,12.5a59.2,59.2,0,0,0,6.2,2.3Z" transform="translate(-15.3 -19.6)" style="fill:#fff"/><polygon points="271.8 306.8 267.1 300 271.2 283.7 278.4 283.7 269.1 279.9 262.4 301.1 271.8 306.8" style="fill:#fff"/><path d="M376.6,391.8v-3.2c-23-5.2-43.5-22.7-48.2-27C347.2,382.9,376.6,391.8,376.6,391.8Z" transform="translate(-15.3 -19.6)" style="fill:#fff"/><path d="M348,239.8l-2.6,28.5,8.9,19.9-2.6-12.4s-2.3-7.2.2-17.6l2.2-8.2,18.1,5.1Z" transform="translate(-15.3 -19.6)" style="fill-rule:evenodd"/><path d="M384.1,260.2l7.1,11.2-9.1,20.4,1.8,5,23.3-24.9Z" transform="translate(-15.3 -19.6)" style="fill-rule:evenodd"/><path d="M414.5,275l-18.8,35.8,1.8,2.6,37.1-32.5Z" transform="translate(-15.3 -19.6)" style="fill-rule:evenodd"/><path d="M442.1,283.6l20.3,3.1L412.7,330l-3-4.9Z" transform="translate(-15.3 -19.6)" style="fill-rule:evenodd"/><path d="M331.6,299.9s-13.6-15.2-12.1-36.6l-2.5-.9s.5,3.4-4.8,12.1l1.2,13.1a14.2,14.2,0,0,1,11.1,9.5s6,3.5,6.7,6.4Z" transform="translate(-15.3 -19.6)" style="fill-rule:evenodd"/><path d="M361.6,341.5l5.3,1.5-3.9-3.5Z" transform="translate(-15.3 -19.6)" style="fill-rule:evenodd"/><path d="M128.8,232.8S142.4,218,148.2,191,165,158.8,165,158.8s-19.1-.4-25.9,28.9-16.4,1.8-16.4,1.8Z" transform="translate(-15.3 -19.6)" style="fill-rule:evenodd"/><path d="M223,165.8s22.5-37.4,38.5-40.6a197.6,197.6,0,0,0-27.7,43.1Z" transform="translate(-15.3 -19.6)" style="fill-rule:evenodd"/><path d="M284.8,148.8s-5.9-12.5-22.5-8.2c0,0,13.2-16.1,31,4.2l9-8.1s-12.3-53.4-62.7-38c0,0,42.3-32.2,70.4,29.1l-6.1,17Z" transform="translate(-15.3 -19.6)" style="fill-rule:evenodd"/><path d="M164.4,313.2s21.8-18.6,6.3-46.4c0,0,9.1,3.8,14,27.6l-5.3,13.3Z" transform="translate(-15.3 -19.6)" style="fill-rule:evenodd"/><path d="M90.1,308.1s-9.9-9.4-10.8-30c0,0-5.9,11.7-3.2,25.1Z" transform="translate(-15.3 -19.6)" style="fill-rule:evenodd"/><path d="M61.5,252.2s-16.3-7.8-11.6-32.7c0,0,2.8,18.3,13.4,18.3Z" transform="translate(-15.3 -19.6)" style="fill-rule:evenodd"/><path d="M246.9,89.6s-13.4-33.8-62-29.8l8.5-9.7S252.2,43.5,246.9,89.6Z" transform="translate(-15.3 -19.6)" style="fill-rule:evenodd"/><path d="M164.2,230.1s7.6-7.6,4.7-33.1,16.4-31.8,16.4-31.8a36.2,36.2,0,0,0-7.9,33.5S181.5,214.4,164.2,230.1Z" transform="translate(-15.3 -19.6)" style="fill-rule:evenodd"/><path d="M113.8,282.9s27.7,4.4,36.5-14.1C150.3,268.8,144.9,297.5,113.8,282.9Z" transform="translate(-15.3 -19.6)" style="fill-rule:evenodd"/></svg>