<?xml version="1.0" encoding="utf-8"?>
<!-- Generator: Adobe Illustrator 16.0.0, SVG Export Plug-In . SVG Version: 6.00 Build 0)  -->
<!DOCTYPE svg PUBLIC "-//W3C//DTD SVG 1.0//EN" "http://www.w3.org/TR/2001/REC-SVG-20010904/DTD/svg10.dtd">
<svg version="1.0" id="Layer_1" xmlns="http://www.w3.org/2000/svg" xmlns:xlink="http://www.w3.org/1999/xlink" x="0px" y="0px"
	 width="2560px" height="2560px" viewBox="0 0 2560 2560" enable-background="new 0 0 2560 2560" xml:space="preserve">
<g>
	<defs>
		<rect id="SVGID_1_" width="2560" height="2560"/>
	</defs>
	<clipPath id="SVGID_2_">
		<use xlink:href="#SVGID_1_"  overflow="visible"/>
	</clipPath>
	<g clip-path="url(#SVGID_2_)">
		<defs>
			<rect id="SVGID_3_" width="2560" height="2560"/>
		</defs>
		<clipPath id="SVGID_4_">
			<use xlink:href="#SVGID_3_"  overflow="visible"/>
		</clipPath>
		<path clip-path="url(#SVGID_4_)" d="M2018.905,2367.322c-4.797,0-9.677-0.316-14.504-0.939c-2.995-0.386-5.965-0.953-8.893-1.698
			c-8.156-2.075-36.666-10.905-61.077-37.397c-3.342-3.628-7.018-8.06-10.696-13.318c-1.838-0.058-3.688-0.183-5.545-0.377
			c-10.817-1.132-266.998-29.784-448.713-208.054c-9.92-9.731-16.941-22.028-20.28-35.519c-0.123-0.49-14.613-57.879-42.399-118.6
			c-30.06-65.685-65.438-111.297-94.635-122.011c-24.013-8.812-41.206-28.884-47.015-52.556c-0.656-0.012-1.311-0.018-1.974-0.018
			c-7.112,0-14.546,0.678-22.093,2.015c-4.398,0.778-8.792,1.156-13.128,1.157c-31.423,0.002-60.165-19.81-70.793-50.376
			c-12.096-34.786,2.856-73.207,35.282-90.667l52-28c8.823-4.751,18.509-7.686,28.484-8.631c2.373-0.225,11.192-0.958,25.083-0.958
			c9.943,0,22.456,0.384,36.923,1.624c-11.385-18.726-14.388-42.134-6.63-64.039l34-96c6.67-18.831,20.577-34.223,38.638-42.764
			c2.003-0.947,4.039-1.802,6.101-2.563c-9.885-21.809-15.664-39.832-18.011-55.876c-11.513-8.332-20.553-19.861-25.854-33.377
			c-13.532-34.51-20.12-97.041-16.782-159.306c1.094-20.412,3.422-43.979,7.934-68.823c-33.186-19.161-46.737-61.006-30.537-96.439
			c12.248-26.787,25.173-52.113,38.744-75.929c-60.754,26.162-118.509,39.428-171.681,39.428h-0.017
			c-12.568,0-24.027-0.748-34.374-1.974c-13.642,27.007-20.879,56.219-24.713,79.145c-6.392,38.223-5.107,68.75-4.928,72.294
			c13.313,165.714-13.979,286.664-81.123,359.474c-31.341,33.986-67.927,52.864-99.958,61.294
			c-40.72,46.713-85.026,82.584-132.008,106.83c-49.165,25.372-101.386,38.237-155.213,38.237
			c-64.525,0-132.025-19.084-195.201-55.19c-26.526-15.16-47.275-30.419-60.714-41.214c-63.057-14.962-118.867-38.785-166.12-70.942
			c-43.14-29.358-79.068-65.515-106.787-107.465c-42.544-64.389-52.778-123.259-54.914-139.799
			c-2.493-14.862-8.869-65.534,7.592-123.596c11.431-40.318,31.317-76.011,59.108-106.085c33.507-36.26,77.766-63.417,131.55-80.719
			c30.077-9.675,57.171-14.378,82.829-14.378c63.49,0,101.533,29.224,122.266,53.74c26.037,30.787,40.473,71.935,42.907,122.302
			c1.533,31.735-2.294,56.535-3.076,61.185c-4.83,28.687-25.813,51.993-53.836,59.798c-6.652,1.853-13.417,2.753-20.119,2.753
			c-21.53,0-42.416-9.288-56.878-26.112c-7.282-8.47-12.858-12.652-16.207-14.657c-2.649,4.263-5.77,12.672-4.436,23.977
			c1.992,16.879,8.586,23.428,14.774,27.609c3.971,2.683,7.904,4.229,9.895,4.912c1.264,0.433,2.061,0.633,2.208,0.669
			c0.021,0.005,0.029,0.007,0.028,0.007c-0.005,0-0.09-0.018-0.183-0.038c-0.235-0.038-1.939-0.36-1.939-0.36L379,1313
			l14.654-73.554c15.833,3.154,30.941,4.752,44.904,4.751c47.395-0.004,83.795-18.28,111.283-55.873
			c14.67-20.063,22.912-40.489,26.628-51.298c-7.365-159.261,3.617-300.241,32.671-419.196
			c24.82-101.623,62.947-188.122,113.32-257.092c66.737-91.377,138.544-129.65,176.144-144.495
			c46.494-47.862,108.181-83.736,179.733-104.324c57.668-16.593,102.443-17.822,107.359-17.908c0.142-0.002,0.284-0.004,0.427-0.006
			c2.746-0.032,5.461-0.048,8.171-0.048c74.197,0,140.87,12.172,198.167,36.178c52.638,22.053,97.896,54.202,134.516,95.553
			c31.191,35.22,56.125,77.164,74.107,124.667c13.882,36.665,23.657,76.711,29.055,119.026c4.442,34.816,5.216,65.365,4.782,88.007
			c43.086-15.225,88.439-22.894,135.704-22.894c43.142,0,87.799,6.52,132.731,19.38c35.054,10.032,70.401,23.945,105.06,41.349
			c58.026,29.137,94.674,58.178,98.661,61.393c3.725,3.003,7.093,6.299,10.097,9.83c17.443,1.915,34,9.927,46.455,23.167
			c134.953,143.463,166.063,328.294,173.229,404.596l51.689,45.488c14.89,13.102,23.592,31.142,25.188,49.991
			c8.099,1.439,12.676,2.185,13.09,2.25c25.675,4.1,47.397,21.206,57.401,45.206c10.004,23.999,6.863,51.47-8.298,72.593
			c-160.741,223.931-363.605,356.676-372.162,362.217c-12.503,8.097-26.667,12.049-40.74,12.049c-19.62,0-39.065-7.68-53.6-22.514
			l-17.439-17.802c-4.619,0.875-9.305,1.313-13.996,1.313c-15.89,0-31.813-5.032-45.232-15.182l-27.886-21.091
			c4.904,12.539,6.487,26.525,3.922,40.663c-0.64,3.528-1.52,6.958-2.618,10.272c23.059,0.879,44.944,12.396,58.64,32.008
			c2.544,3.642,8.563,12.796,14.856,26.179c9.03-3.676,18.7-5.499,28.407-5.499c17.744,0,35.617,6.087,49.971,18.063
			c88.906,74.186,108.71,157.035,109.666,213.474c1.017,59.947-18.614,102.568-22.56,110.503c-1.688,3.396-3.612,6.621-5.743,9.663
			c4.653,23.369,4.543,49.969-0.271,80.269c-1.05,7.051-4.768,27.615-14.85,49.603c-8.162,17.801-18.818,32.777-31.672,44.515
			c-20.692,18.896-46.178,28.883-73.698,28.883H2018.905z M1831.808,1656.682c2.534,0.861,5.047,1.688,7.52,2.475l-6.771-5.121
			C1832.323,1654.92,1832.074,1655.801,1831.808,1656.682 M1641.103,1453.718c8.261,4.371,15.785,10.333,22.086,17.759
			c0.862,1.017,1.971,2.191,3.316,3.516c0.45-2.207,1.002-4.402,1.658-6.58c-50.965-50.95-57.477-102.499-58.104-120.267
			l-2.357-42.418c-1.341-0.412-2.674-0.842-3.997-1.288c-1.475,5.809-3.666,11.51-6.594,16.977l-18.503,34.538l7.09,51.808
			C1608.822,1414.813,1628.362,1430.844,1641.103,1453.718"/>
		<path clip-path="url(#SVGID_4_)" d="M2018.905,2367.322c-4.797,0-9.677-0.316-14.504-0.939c-2.995-0.386-5.965-0.953-8.893-1.698
			c-8.156-2.075-36.666-10.905-61.077-37.397c-3.342-3.628-7.018-8.06-10.696-13.318c-1.838-0.058-3.688-0.183-5.545-0.377
			c-10.817-1.132-266.998-29.784-448.713-208.054c-9.92-9.731-16.941-22.028-20.28-35.519c-0.123-0.49-14.613-57.879-42.399-118.6
			c-30.06-65.685-65.438-111.297-94.635-122.011c-24.013-8.812-41.206-28.884-47.015-52.556c-0.656-0.012-1.311-0.018-1.974-0.018
			c-7.112,0-14.546,0.678-22.093,2.015c-4.398,0.778-8.792,1.156-13.128,1.157c-31.423,0.002-60.165-19.81-70.793-50.376
			c-12.096-34.786,2.856-73.207,35.282-90.667l52-28c8.823-4.751,18.509-7.686,28.484-8.631c2.373-0.225,11.192-0.958,25.083-0.958
			c9.943,0,22.456,0.384,36.923,1.624c-11.385-18.726-14.388-42.134-6.63-64.039l34-96c6.67-18.831,20.577-34.223,38.638-42.764
			c2.003-0.947,4.039-1.802,6.101-2.563c-9.885-21.809-15.664-39.832-18.011-55.876c-11.513-8.332-20.553-19.861-25.854-33.377
			c-13.532-34.51-20.12-97.041-16.782-159.306c1.094-20.412,3.422-43.979,7.934-68.823c-33.186-19.161-46.737-61.006-30.537-96.439
			c12.248-26.787,25.173-52.113,38.744-75.929c-60.754,26.162-118.509,39.428-171.681,39.428h-0.017
			c-12.568,0-24.027-0.748-34.374-1.974c-13.642,27.007-20.879,56.219-24.713,79.145c-6.392,38.223-5.107,68.75-4.928,72.294
			c13.313,165.714-13.979,286.664-81.123,359.474c-31.341,33.986-67.927,52.864-99.958,61.294
			c-40.72,46.713-85.026,82.584-132.008,106.83c-49.165,25.372-101.386,38.237-155.213,38.237
			c-64.525,0-132.025-19.084-195.201-55.19c-26.526-15.16-47.275-30.419-60.714-41.214c-63.057-14.962-118.867-38.785-166.12-70.942
			c-43.14-29.358-79.068-65.515-106.787-107.465c-42.544-64.389-52.778-123.259-54.914-139.799
			c-2.493-14.862-8.869-65.534,7.592-123.596c11.431-40.318,31.317-76.011,59.108-106.085c33.507-36.26,77.766-63.417,131.55-80.719
			c30.077-9.675,57.171-14.378,82.829-14.378c63.49,0,101.533,29.224,122.266,53.74c26.037,30.787,40.473,71.935,42.907,122.302
			c1.533,31.735-2.294,56.535-3.076,61.185c-4.83,28.687-25.813,51.993-53.836,59.798c-6.652,1.853-13.417,2.753-20.119,2.753
			c-21.53,0-42.416-9.288-56.878-26.112c-7.282-8.47-12.858-12.652-16.207-14.657c-2.649,4.263-5.77,12.672-4.436,23.977
			c1.992,16.879,8.586,23.428,14.774,27.609c3.971,2.683,7.904,4.229,9.895,4.912c1.264,0.433,2.061,0.633,2.208,0.669
			c0.021,0.005,0.029,0.007,0.028,0.007c-0.005,0-0.09-0.018-0.183-0.038c-0.235-0.038-1.939-0.36-1.939-0.36L379,1313
			l14.654-73.554c15.833,3.154,30.941,4.752,44.904,4.751c47.395-0.004,83.795-18.28,111.283-55.873
			c14.67-20.063,22.912-40.489,26.628-51.298c-7.365-159.261,3.617-300.241,32.671-419.196
			c24.82-101.623,62.947-188.122,113.32-257.092c66.737-91.377,138.544-129.65,176.144-144.495
			c46.494-47.862,108.181-83.736,179.733-104.324c57.668-16.593,102.443-17.822,107.359-17.908c0.142-0.002,0.284-0.004,0.427-0.006
			c2.746-0.032,5.461-0.048,8.171-0.048c74.197,0,140.87,12.172,198.167,36.178c52.638,22.053,97.896,54.202,134.516,95.553
			c31.191,35.22,56.125,77.164,74.107,124.667c13.882,36.665,23.657,76.711,29.055,119.026c4.442,34.816,5.216,65.365,4.782,88.007
			c43.086-15.225,88.439-22.894,135.704-22.894c43.142,0,87.799,6.52,132.731,19.38c35.054,10.032,70.401,23.945,105.06,41.349
			c58.026,29.137,94.674,58.178,98.661,61.393c3.725,3.003,7.093,6.299,10.097,9.83c17.443,1.915,34,9.927,46.455,23.167
			c134.953,143.463,166.063,328.294,173.229,404.596l51.689,45.488c14.89,13.102,23.592,31.142,25.188,49.991
			c8.099,1.439,12.676,2.185,13.09,2.25c25.675,4.1,47.397,21.206,57.401,45.206c10.004,23.999,6.863,51.47-8.298,72.593
			c-160.741,223.931-363.605,356.676-372.162,362.217c-12.503,8.097-26.667,12.049-40.74,12.049c-19.62,0-39.065-7.68-53.6-22.514
			l-17.439-17.802c-4.619,0.875-9.305,1.313-13.996,1.313c-15.89,0-31.813-5.032-45.232-15.182l-27.886-21.091
			c4.904,12.539,6.487,26.525,3.922,40.663c-0.64,3.528-1.52,6.958-2.618,10.272c23.059,0.879,44.944,12.396,58.64,32.008
			c2.544,3.642,8.563,12.796,14.856,26.179c9.03-3.676,18.7-5.499,28.407-5.499c17.744,0,35.617,6.087,49.971,18.063
			c88.906,74.186,108.71,157.035,109.666,213.474c1.017,59.947-18.614,102.568-22.56,110.503c-1.688,3.396-3.612,6.621-5.743,9.663
			c4.653,23.369,4.543,49.969-0.271,80.269c-1.05,7.051-4.768,27.615-14.85,49.603c-8.162,17.801-18.818,32.777-31.672,44.515
			c-20.692,18.896-46.178,28.883-73.698,28.883H2018.905z M1831.808,1656.682c2.534,0.861,5.047,1.688,7.52,2.475l-6.771-5.121
			C1832.323,1654.92,1832.074,1655.801,1831.808,1656.682 M1641.103,1453.718c8.261,4.371,15.785,10.333,22.086,17.759
			c0.862,1.017,1.971,2.191,3.316,3.516c0.45-2.207,1.002-4.402,1.658-6.58c-50.965-50.95-57.477-102.499-58.104-120.267
			l-2.357-42.418c-1.341-0.412-2.674-0.842-3.997-1.288c-1.475,5.809-3.666,11.51-6.594,16.977l-18.503,34.538l7.09,51.808
			C1608.822,1414.813,1628.362,1430.844,1641.103,1453.718"/>
		<path clip-path="url(#SVGID_4_)" d="M2018.905,2367.322c-4.797,0-9.677-0.316-14.504-0.939c-2.995-0.386-5.965-0.953-8.893-1.698
			c-8.156-2.075-36.666-10.905-61.077-37.397c-3.342-3.628-7.018-8.06-10.696-13.318c-1.838-0.058-3.688-0.183-5.545-0.377
			c-10.817-1.132-266.998-29.784-448.713-208.054c-9.92-9.731-16.941-22.028-20.28-35.519c-0.123-0.49-14.613-57.879-42.399-118.6
			c-30.06-65.685-65.438-111.297-94.635-122.011c-24.013-8.812-41.206-28.884-47.015-52.556c-0.656-0.012-1.311-0.018-1.974-0.018
			c-7.112,0-14.546,0.678-22.093,2.015c-4.398,0.778-8.792,1.156-13.128,1.157c-31.423,0.002-60.165-19.81-70.793-50.376
			c-12.096-34.786,2.856-73.207,35.282-90.667l52-28c8.823-4.751,18.509-7.686,28.484-8.631c2.373-0.225,11.192-0.958,25.083-0.958
			c9.943,0,22.456,0.384,36.923,1.624c-11.385-18.726-14.388-42.134-6.63-64.039l34-96c6.67-18.831,20.577-34.223,38.638-42.764
			c2.003-0.947,4.039-1.802,6.101-2.563c-9.885-21.809-15.664-39.832-18.011-55.876c-11.513-8.332-20.553-19.861-25.854-33.377
			c-13.532-34.51-20.12-97.041-16.782-159.306c1.094-20.412,3.422-43.979,7.934-68.823c-33.186-19.161-46.737-61.006-30.537-96.439
			c12.248-26.787,25.173-52.113,38.744-75.929c-60.754,26.162-118.509,39.428-171.681,39.428h-0.017
			c-12.568,0-24.027-0.748-34.374-1.974c-13.642,27.007-20.879,56.219-24.713,79.145c-6.392,38.223-5.107,68.75-4.928,72.294
			c13.313,165.714-13.979,286.664-81.123,359.474c-31.341,33.986-67.927,52.864-99.958,61.294
			c-40.72,46.713-85.026,82.584-132.008,106.83c-49.165,25.372-101.386,38.237-155.213,38.237
			c-64.525,0-132.025-19.084-195.201-55.19c-26.526-15.16-47.275-30.419-60.714-41.214c-63.057-14.962-118.867-38.785-166.12-70.942
			c-43.14-29.358-79.068-65.515-106.787-107.465c-42.544-64.389-52.778-123.259-54.914-139.799
			c-2.493-14.862-8.869-65.534,7.592-123.596c11.431-40.318,31.317-76.011,59.108-106.085c33.507-36.26,77.766-63.417,131.55-80.719
			c30.077-9.675,57.171-14.378,82.829-14.378c63.49,0,101.533,29.224,122.266,53.74c26.037,30.787,40.473,71.935,42.907,122.302
			c1.533,31.735-2.294,56.535-3.076,61.185c-4.83,28.687-25.813,51.993-53.836,59.798c-6.652,1.853-13.417,2.753-20.119,2.753
			c-21.53,0-42.416-9.288-56.878-26.112c-7.282-8.47-12.858-12.652-16.207-14.657c-2.649,4.263-5.77,12.672-4.436,23.977
			c1.992,16.879,8.586,23.428,14.774,27.609c3.971,2.683,7.904,4.229,9.895,4.912c1.264,0.433,2.061,0.633,2.208,0.669
			c0.021,0.005,0.029,0.007,0.028,0.007c-0.005,0-0.09-0.018-0.183-0.038c-0.235-0.038-1.939-0.36-1.939-0.36L379,1313
			l14.654-73.554c15.833,3.154,30.941,4.752,44.904,4.751c47.395-0.004,83.795-18.28,111.283-55.873
			c14.67-20.063,22.912-40.489,26.628-51.298c-7.365-159.261,3.617-300.241,32.671-419.196
			c24.82-101.623,62.947-188.122,113.32-257.092c66.737-91.377,138.544-129.65,176.144-144.495
			c46.494-47.862,108.181-83.736,179.733-104.324c57.668-16.593,102.443-17.822,107.359-17.908c0.142-0.002,0.284-0.004,0.427-0.006
			c2.746-0.032,5.461-0.048,8.171-0.048c74.197,0,140.87,12.172,198.167,36.178c52.638,22.053,97.896,54.202,134.516,95.553
			c31.191,35.22,56.125,77.164,74.107,124.667c13.882,36.665,23.657,76.711,29.055,119.026c4.442,34.816,5.216,65.365,4.782,88.007
			c43.086-15.225,88.439-22.894,135.704-22.894c43.142,0,87.799,6.52,132.731,19.38c35.054,10.032,70.401,23.945,105.06,41.349
			c58.026,29.137,94.674,58.178,98.661,61.393c3.725,3.003,7.093,6.299,10.097,9.83c17.443,1.915,34,9.927,46.455,23.167
			c134.953,143.463,166.063,328.294,173.229,404.596l51.689,45.488c14.89,13.102,23.592,31.142,25.188,49.991
			c8.099,1.439,12.676,2.185,13.09,2.25c25.675,4.1,47.397,21.206,57.401,45.206c10.004,23.999,6.863,51.47-8.298,72.593
			c-160.741,223.931-363.605,356.676-372.162,362.217c-12.503,8.097-26.667,12.049-40.74,12.049c-19.62,0-39.065-7.68-53.6-22.514
			l-17.439-17.802c-4.619,0.875-9.305,1.313-13.996,1.313c-15.89,0-31.813-5.032-45.232-15.182l-27.886-21.091
			c4.904,12.539,6.487,26.525,3.922,40.663c-0.64,3.528-1.52,6.958-2.618,10.272c23.059,0.879,44.944,12.396,58.64,32.008
			c2.544,3.642,8.563,12.796,14.856,26.179c9.03-3.676,18.7-5.499,28.407-5.499c17.744,0,35.617,6.087,49.971,18.063
			c88.906,74.186,108.71,157.035,109.666,213.474c1.017,59.947-18.614,102.568-22.56,110.503c-1.688,3.396-3.612,6.621-5.743,9.663
			c4.653,23.369,4.543,49.969-0.271,80.269c-1.05,7.051-4.768,27.615-14.85,49.603c-8.162,17.801-18.818,32.777-31.672,44.515
			c-20.692,18.896-46.178,28.883-73.698,28.883H2018.905z M1831.808,1656.682c2.534,0.861,5.047,1.688,7.52,2.475l-6.771-5.121
			C1832.323,1654.92,1832.074,1655.801,1831.808,1656.682 M1641.103,1453.718c8.261,4.371,15.785,10.333,22.086,17.759
			c0.862,1.017,1.971,2.191,3.316,3.516c0.45-2.207,1.002-4.402,1.658-6.58c-50.965-50.95-57.477-102.499-58.104-120.267
			l-2.357-42.418c-1.341-0.412-2.674-0.842-3.997-1.288c-1.475,5.809-3.666,11.51-6.594,16.977l-18.503,34.538l7.09,51.808
			C1608.822,1414.813,1628.362,1430.844,1641.103,1453.718"/>
		<path clip-path="url(#SVGID_4_)" fill="#2164AF" d="M2010,1888c0,0,58.837,83.521,5,205c0,0,51.116-8.813,63,28
			C2078,2121,2139.939,1996.424,2010,1888 M1516,1864c65.253,40.25,110,44,110,44c-89.099-255.334-346-231-346-231l-52,28
			c120.979-21.43,184,73,184,73c-43.578-20.902-74-19-74-19c122.615,44.994,184,293,184,293c165.122,161.99,404,187,404,187
			c-54.83-13.372-115-65-115-65c66.912,27.23,121,22,121,22c2.936-48.779,33-83,33-83C1569.508,2028.794,1516,1864,1516,1864
			 M2035,2139c-8.516-3.159-42.237-1.578-58,69c-15.763,70.577,37,84,37,84c41.956,5.414,51-59,51-59
			C2077.688,2153.986,2043.516,2142.159,2035,2139 M1976,2026c9.51-61.7-27-114-27-114l-4,51c-183.948-37.077-345-175-345-175
			C1794.902,2000.309,1976,2026,1976,2026 M1900.435,1871.471C1767.439,1844.676,1651,1745,1651,1745
			c140.914,153.433,271.848,172,271.848,172c6.876-44.59-19.521-82.387-19.521-82.387L1900.435,1871.471z M1640,1114
			c0,0-52.806-2.287-42,49s71,23,71,23s-42.413,6.033-50-25S1640,1114,1640,1114 M1776,1140c0,0-17.827,33.273-45.666,66.918
			c11.538-14.419,18.108-32.055,21.666-48.918c8.259-39.148-24.118-98.469-89-101s-87,65-87,65c64.972-54.74,104.304-27.681,124-10
			s18.161,85.148-34,95c-52.161,9.851-86-28-86-28s8.729,56.518,74,59c35.276,1.341,58.63-10.703,73.952-28.233
			c-13.935,16.507-30.224,32.881-47.952,45.233l5,90c0,0-0.602,43.652,54,86s134,114,134,114l-133-55l238,180l-60-109l145,148
			c0,0,197.676-128.008,352-343C2415,1366,1992.453,1298.537,1776,1140 M1844,793c-191.358-9.224-314.254,99.56-376,193
			s-51.156,253.801-35,295l126-76l-88,10c0,0-11.617-366.471,263-225c0,0-24.161,23.232-49,35c0,0,161.401,27.749,319-54
			c0,0-71.417,88.17-231,114l40,28c0,0,76.906-25.764,88-34c0,0-24.109,25.247-66,51c0,0,90.212,56.006,165,77l-23-80l-59-19l54-15
			l120,25c0,0,24.506-32.344,34-75c0,0,8.468,49.892,2,88c0,0,76.41,20.606,89,33l8,59l-134,1c0,0,69.054,53.802,248,72l-75-66
			c0,0-2.384-226.759-155-389l-8,44l20,68C2121,953,2035.357,802.224,1844,793 M1583,1653c159.441,73.627,252,83,252,83
			c-104.417-27.564-256-122-256-122L1583,1653z M1760,1635c0,0-122.318-77.661-154-115l1,31C1607,1551,1646.387,1590.863,1760,1635
			 M1548,1481c-28.597,11.755-10,40-10,40s-5.531-17.811,13-25s30,11,30,11S1576.597,1469.245,1548,1481 M1512,1593
			c14.607-5.801,31,10,31,10s1.349-38.71-33-25c-34.35,13.709-10,40-10,40S1497.393,1598.801,1512,1593 M1480,1485l-47-17l-34,96
			l48,26l-24-31l21-74H1480z M1501,1342l30-56l-68,43c3.513,33.438,51,108,51,108L1501,1342z M1392,1015
			c0,0,203.545-401.216,668-200C2060,815,1638.765,475.293,1392,1015 M1187,269c0,0-152.465,2.652-246,112
			c0,0-324.932,75.593-289,765c0,0-48.666,211.691-273,167c0,0-76.94-12.756-87-98s73.057-158.832,152-67c0,0,33.25-197.305-148-139
			c-181.249,58.304-147,228-147,228s19.391,205.215,288,260c0,0,246.193,233.412,469-49c0,0,174.415,4.359,146-346
			c0,0-10.277-148.672,72-242c0,0,146.836,80.68,434-171C1558,689,1609.766,264.052,1187,269"/>
		<path clip-path="url(#SVGID_4_)" fill="#2164AF" d="M2010,1888c0,0,58.837,83.521,5,205c0,0,51.116-8.813,63,28
			C2078,2121,2139.939,1996.424,2010,1888 M1516,1864c65.253,40.25,110,44,110,44c-89.099-255.334-346-231-346-231l-52,28
			c120.979-21.43,184,73,184,73c-43.578-20.902-74-19-74-19c122.615,44.994,184,293,184,293c165.122,161.99,404,187,404,187
			c-54.83-13.372-115-65-115-65c66.912,27.23,121,22,121,22c2.936-48.779,33-83,33-83C1569.508,2028.794,1516,1864,1516,1864
			 M2035,2139c-8.516-3.159-42.237-1.578-58,69c-15.763,70.577,37,84,37,84c41.956,5.414,51-59,51-59
			C2077.688,2153.986,2043.516,2142.159,2035,2139 M1976,2026c9.51-61.7-27-114-27-114l-4,51c-183.948-37.077-345-175-345-175
			C1794.902,2000.309,1976,2026,1976,2026 M1900.435,1871.471C1767.439,1844.676,1651,1745,1651,1745
			c140.914,153.433,271.848,172,271.848,172c6.876-44.59-19.521-82.387-19.521-82.387L1900.435,1871.471z M1640,1114
			c0,0-52.806-2.287-42,49s71,23,71,23s-42.413,6.033-50-25S1640,1114,1640,1114 M1776,1140c0,0-17.827,33.273-45.666,66.918
			c11.538-14.419,18.108-32.055,21.666-48.918c8.259-39.148-24.118-98.469-89-101s-87,65-87,65c64.972-54.74,104.304-27.681,124-10
			s18.161,85.148-34,95c-52.161,9.851-86-28-86-28s8.729,56.518,74,59c35.276,1.341,58.63-10.703,73.952-28.233
			c-13.935,16.507-30.224,32.881-47.952,45.233l5,90c0,0-0.602,43.652,54,86s134,114,134,114l-133-55l238,180l-60-109l145,148
			c0,0,197.676-128.008,352-343C2415,1366,1992.453,1298.537,1776,1140 M1844,793c-191.358-9.224-314.254,99.56-376,193
			s-51.156,253.801-35,295l126-76l-88,10c0,0-11.617-366.471,263-225c0,0-24.161,23.232-49,35c0,0,161.401,27.749,319-54
			c0,0-71.417,88.17-231,114l40,28c0,0,76.906-25.764,88-34c0,0-24.109,25.247-66,51c0,0,90.212,56.006,165,77l-23-80l-59-19l54-15
			l120,25c0,0,24.506-32.344,34-75c0,0,8.468,49.892,2,88c0,0,76.41,20.606,89,33l8,59l-134,1c0,0,69.054,53.802,248,72l-75-66
			c0,0-2.384-226.759-155-389l-8,44l20,68C2121,953,2035.357,802.224,1844,793 M1583,1653c159.441,73.627,252,83,252,83
			c-104.417-27.564-256-122-256-122L1583,1653z M1760,1635c0,0-122.318-77.661-154-115l1,31C1607,1551,1646.387,1590.863,1760,1635
			 M1548,1481c-28.597,11.755-10,40-10,40s-5.531-17.811,13-25s30,11,30,11S1576.597,1469.245,1548,1481 M1512,1593
			c14.607-5.801,31,10,31,10s1.349-38.71-33-25c-34.35,13.709-10,40-10,40S1497.393,1598.801,1512,1593 M1480,1485l-47-17l-34,96
			l48,26l-24-31l21-74H1480z M1501,1342l30-56l-68,43c3.513,33.438,51,108,51,108L1501,1342z M1392,1015
			c0,0,203.545-401.216,668-200C2060,815,1638.765,475.293,1392,1015 M1187,269c0,0-152.465,2.652-246,112
			c0,0-324.932,75.593-289,765c0,0-48.666,211.691-273,167c0,0-76.94-12.756-87-98s73.057-158.832,152-67c0,0,33.25-197.305-148-139
			c-181.249,58.304-147,228-147,228s19.391,205.215,288,260c0,0,246.193,233.412,469-49c0,0,174.415,4.359,146-346
			c0,0-10.277-148.672,72-242c0,0,146.836,80.68,434-171C1558,689,1609.766,264.052,1187,269"/>
		<path clip-path="url(#SVGID_4_)" fill="#2164AF" d="M2010,1888c0,0,58.837,83.521,5,205c0,0,51.116-8.813,63,28
			C2078,2121,2139.939,1996.424,2010,1888 M1516,1864c65.253,40.25,110,44,110,44c-89.099-255.334-346-231-346-231l-52,28
			c120.979-21.43,184,73,184,73c-43.578-20.902-74-19-74-19c122.615,44.994,184,293,184,293c165.122,161.99,404,187,404,187
			c-54.83-13.372-115-65-115-65c66.912,27.23,121,22,121,22c2.936-48.779,33-83,33-83C1569.508,2028.794,1516,1864,1516,1864
			 M2035,2139c-8.516-3.159-42.237-1.578-58,69c-15.763,70.577,37,84,37,84c41.956,5.414,51-59,51-59
			C2077.688,2153.986,2043.516,2142.159,2035,2139 M1976,2026c9.51-61.7-27-114-27-114l-4,51c-183.948-37.077-345-175-345-175
			C1794.902,2000.309,1976,2026,1976,2026 M1900.435,1871.471C1767.439,1844.676,1651,1745,1651,1745
			c140.914,153.433,271.848,172,271.848,172c6.876-44.59-19.521-82.387-19.521-82.387L1900.435,1871.471z M1640,1114
			c0,0-52.806-2.287-42,49s71,23,71,23s-42.413,6.033-50-25S1640,1114,1640,1114 M1776,1140c0,0-17.827,33.273-45.666,66.918
			c11.538-14.419,18.108-32.055,21.666-48.918c8.259-39.148-24.118-98.469-89-101s-87,65-87,65c64.972-54.74,104.304-27.681,124-10
			s18.161,85.148-34,95c-52.161,9.851-86-28-86-28s8.729,56.518,74,59c35.276,1.341,58.63-10.703,73.952-28.233
			c-13.935,16.507-30.224,32.881-47.952,45.233l5,90c0,0-0.602,43.652,54,86s134,114,134,114l-133-55l238,180l-60-109l145,148
			c0,0,197.676-128.008,352-343C2415,1366,1992.453,1298.537,1776,1140 M1844,793c-191.358-9.224-314.254,99.56-376,193
			s-51.156,253.801-35,295l126-76l-88,10c0,0-11.617-366.471,263-225c0,0-24.161,23.232-49,35c0,0,161.401,27.749,319-54
			c0,0-71.417,88.17-231,114l40,28c0,0,76.906-25.764,88-34c0,0-24.109,25.247-66,51c0,0,90.212,56.006,165,77l-23-80l-59-19l54-15
			l120,25c0,0,24.506-32.344,34-75c0,0,8.468,49.892,2,88c0,0,76.41,20.606,89,33l8,59l-134,1c0,0,69.054,53.802,248,72l-75-66
			c0,0-2.384-226.759-155-389l-8,44l20,68C2121,953,2035.357,802.224,1844,793 M1583,1653c159.441,73.627,252,83,252,83
			c-104.417-27.564-256-122-256-122L1583,1653z M1760,1635c0,0-122.318-77.661-154-115l1,31C1607,1551,1646.387,1590.863,1760,1635
			 M1548,1481c-28.597,11.755-10,40-10,40s-5.531-17.811,13-25s30,11,30,11S1576.597,1469.245,1548,1481 M1512,1593
			c14.607-5.801,31,10,31,10s1.349-38.71-33-25c-34.35,13.709-10,40-10,40S1497.393,1598.801,1512,1593 M1480,1485l-47-17l-34,96
			l48,26l-24-31l21-74H1480z M1501,1342l30-56l-68,43c3.513,33.438,51,108,51,108L1501,1342z M1392,1015
			c0,0,203.545-401.216,668-200C2060,815,1638.765,475.293,1392,1015 M1187,269c0,0-152.465,2.652-246,112
			c0,0-324.932,75.593-289,765c0,0-48.666,211.691-273,167c0,0-76.94-12.756-87-98s73.057-158.832,152-67c0,0,33.25-197.305-148-139
			c-181.249,58.304-147,228-147,228s19.391,205.215,288,260c0,0,246.193,233.412,469-49c0,0,174.415,4.359,146-346
			c0,0-10.277-148.672,72-242c0,0,146.836,80.68,434-171C1558,689,1609.766,264.052,1187,269"/>
		<path clip-path="url(#SVGID_4_)" fill-rule="evenodd" clip-rule="evenodd" fill="#2164AF" d="M2010,1888c0,0,58.837,83.521,5,205
			c0,0,51.116-8.813,63,28C2078,2121,2139.939,1996.424,2010,1888 M1516,1864c65.253,40.25,110,44,110,44
			c-89.099-255.334-346-231-346-231l-52,28c120.979-21.43,184,73,184,73c-43.578-20.902-74-19-74-19c122.615,44.994,184,293,184,293
			c165.122,161.99,404,187,404,187c-54.83-13.372-115-65-115-65c66.912,27.23,121,22,121,22c2.936-48.779,33-83,33-83
			C1569.508,2028.794,1516,1864,1516,1864 M2035,2139c-8.516-3.159-42.237-1.578-58,69c-15.763,70.577,37,84,37,84
			c41.956,5.414,51-59,51-59C2077.688,2153.986,2043.516,2142.159,2035,2139 M1976,2026c9.51-61.7-27-114-27-114l-4,51
			c-183.948-37.077-345-175-345-175C1794.902,2000.309,1976,2026,1976,2026 M1900.435,1871.471
			C1767.439,1844.676,1651,1745,1651,1745c140.914,153.433,271.848,172,271.848,172c6.876-44.59-19.521-82.387-19.521-82.387
			L1900.435,1871.471z M1640,1114c0,0-52.806-2.287-42,49s71,23,71,23s-42.413,6.033-50-25S1640,1114,1640,1114 M1776,1140
			c0,0-17.827,33.273-45.666,66.918c11.538-14.419,18.108-32.055,21.666-48.918c8.259-39.148-24.118-98.469-89-101s-87,65-87,65
			c64.972-54.74,104.304-27.681,124-10s18.161,85.148-34,95c-52.161,9.851-86-28-86-28s8.729,56.518,74,59
			c35.276,1.341,58.63-10.703,73.952-28.233c-13.935,16.507-30.224,32.881-47.952,45.233l5,90c0,0-0.602,43.652,54,86
			s134,114,134,114l-133-55l238,180l-60-109l145,148c0,0,197.676-128.008,352-343C2415,1366,1992.453,1298.537,1776,1140 M1844,793
			c-191.358-9.224-314.254,99.56-376,193s-51.156,253.801-35,295l126-76l-88,10c0,0-11.617-366.471,263-225c0,0-24.161,23.232-49,35
			c0,0,161.401,27.749,319-54c0,0-71.417,88.17-231,114l40,28c0,0,76.906-25.764,88-34c0,0-24.109,25.247-66,51
			c0,0,90.212,56.006,165,77l-23-80l-59-19l54-15l120,25c0,0,24.506-32.344,34-75c0,0,8.468,49.892,2,88c0,0,76.41,20.606,89,33
			l8,59l-134,1c0,0,69.054,53.802,248,72l-75-66c0,0-2.384-226.759-155-389l-8,44l20,68C2121,953,2035.357,802.224,1844,793
			 M1583,1653c159.441,73.627,252,83,252,83c-104.417-27.564-256-122-256-122L1583,1653z M1760,1635c0,0-122.318-77.661-154-115
			l1,31C1607,1551,1646.387,1590.863,1760,1635 M1548,1481c-28.597,11.755-10,40-10,40s-5.531-17.811,13-25s30,11,30,11
			S1576.597,1469.245,1548,1481 M1512,1593c14.607-5.801,31,10,31,10s1.349-38.71-33-25c-34.35,13.709-10,40-10,40
			S1497.393,1598.801,1512,1593 M1480,1485l-47-17l-34,96l48,26l-24-31l21-74H1480z M1501,1342l30-56l-68,43
			c3.513,33.438,51,108,51,108L1501,1342z M1392,1015c0,0,203.545-401.216,668-200C2060,815,1638.765,475.293,1392,1015 M1187,269
			c0,0-152.465,2.652-246,112c0,0-324.932,75.593-289,765c0,0-48.666,211.691-273,167c0,0-76.94-12.756-87-98s73.057-158.832,152-67
			c0,0,33.25-197.305-148-139c-181.249,58.304-147,228-147,228s19.391,205.215,288,260c0,0,246.193,233.412,469-49
			c0,0,174.415,4.359,146-346c0,0-10.277-148.672,72-242c0,0,146.836,80.68,434-171C1558,689,1609.766,264.052,1187,269"/>
	</g>
	<g clip-path="url(#SVGID_2_)">
		<defs>
			<path id="SVGID_5_" d="M1977,2208c-15.762,70.577,37,84,37,84c41.956,5.414,51-59,51-59c12.688-79.013-21.484-90.841-30-94
				c-1.361-0.505-3.369-0.889-5.842-0.889C2016.16,2138.109,1990.243,2148.704,1977,2208 M2015,2093c0,0,51.116-8.813,63,28
				c0,0,61.941-124.576-68-233C2010,1888,2068.837,1971.521,2015,2093 M1976,2026c9.51-61.7-27-114-27-114l-4,51
				c-183.948-37.077-345-175-345-175C1794.902,2000.309,1976,2026,1976,2026 M1922.847,1917c6.876-44.59-19.52-82.386-19.52-82.386
				l-2.892,36.855C1767.441,1844.676,1651,1745,1651,1745C1791.914,1898.432,1922.847,1917,1922.847,1917 M1280,1677l-52,28
				c120.979-21.43,184,73,184,73c-43.578-20.903-74-19-74-19c122.615,44.995,184,293,184,293c165.122,161.991,404,187,404,187
				c-54.83-13.372-115-65-115-65c66.912,27.23,121,22,121,22c2.936-48.78,33-83,33-83c-395.492-84.206-449-249-449-249
				c65.253,40.25,110,44,110,44c-74.834-214.456-268.044-231.623-327.99-231.624C1286.584,1676.376,1280,1677,1280,1677 M1823,1667
				l30,8l-2-20l-27-12L1823,1667z M1583,1653c159.441,73.627,252,83,252,83c-104.417-27.565-256-122-256-122L1583,1653z M1510,1578
				c-34.349,13.709-10,40-10,40s-2.608-19.199,12-25c14.607-5.801,31,10,31,10s0.973-27.938-19.795-27.939
				C1519.527,1575.061,1515.168,1575.938,1510,1578 M1607,1551c0,0,39.387,39.863,153,84c0,0-122.319-77.661-154-115L1607,1551z
				 M1548,1481c-28.597,11.755-10,40-10,40s-5.531-17.811,13-25c18.532-7.191,30,11,30,11s-3.297-28.27-22.712-28.27
				C1555.265,1478.73,1551.852,1479.417,1548,1481 M1399,1564l48,26l-24-31l21-74h36l-47-17L1399,1564z M1463,1329
				c3.513,33.438,51,108,51,108l-13-95l30-56L1463,1329z M1568,1333c0,0-2,111.037,5,107s63,56,63,56l54-17l-49-187l-52-8L1568,1333
				z M1598,1163c10.806,51.287,71,23,71,23s-42.413,6.032-50-25s21-47,21-47s-0.355-0.016-0.998-0.016
				C1631.781,1113.984,1588.079,1115.911,1598,1163 M1576,1122c64.972-54.74,104.304-27.682,124-10
				c19.697,17.68,18.161,85.149-34,95s-86-28-86-28s8.729,56.518,74,59c35.277,1.341,58.63-10.703,73.952-28.233
				c-13.935,16.508-30.224,32.881-47.952,45.233l5,90c0,0-0.601,43.653,54,86c54.602,42.348,134,114,134,114l-133-55l238,180
				l-60-109l145,148c0,0,197.676-128.007,352-343c0,0-422.547-67.463-639-226c0,0-17.828,33.274-45.666,66.918
				c11.538-14.418,18.109-32.055,21.666-48.918c8.259-39.148-24.118-98.469-89-101c-1.192-0.047-2.374-0.069-3.537-0.069
				C1597.309,1056.928,1576,1122,1576,1122 M1468,986c-61.746,93.441-51.156,253.801-35,295l126-76l-88,10
				c0,0-11.618-366.471,263-225c0,0-24.161,23.232-49,35c0,0,161.401,27.749,319-54c0,0-71.417,88.17-231,114l40,28
				c0,0,76.906-25.764,88-34c0,0-24.109,25.247-66,51c0,0,90.212,56.006,165,77l-23-80l-59-19l54-15l120,25c0,0,24.506-32.344,34-75
				c0,0,8.468,49.892,2,88c0,0,76.41,20.606,89,33l8,59l-134,1c0,0,69.054,53.802,248,72l-75-66c0,0-2.384-226.759-155-389l-8,44
				l20,68c0,0-85.642-150.776-277-160c-7.65-0.368-15.195-0.549-22.627-0.549C1642.908,792.45,1527.278,896.295,1468,986 M1392,1015
				c0,0,203.545-401.216,668-200c0,0-130.846-105.489-289.375-105.507C1644.67,709.479,1501.255,776.045,1392,1015 M1187,269
				c0,0-152.465,2.653-246,112c0,0-324.932,75.593-289,765c0,0-48.665,211.692-273,167c0,0-76.94-12.756-87-98
				s73.057-158.832,152-67c0,0,33.249-197.304-148-139s-147,228-147,228s19.391,205.215,288,260c0,0,246.194,233.412,469-49
				c0,0,174.415,4.359,146-346c0,0-10.277-148.672,72-242c0,0,146.836,80.68,434-171c0,0,51.156-420.035-363.705-420.042
				C1191.876,268.958,1189.451,268.972,1187,269"/>
		</defs>
		<clipPath id="SVGID_6_">
			<use xlink:href="#SVGID_5_"  overflow="visible"/>
		</clipPath>
		<g opacity="0.251" clip-path="url(#SVGID_6_)">
			<g>
				<defs>
					<rect id="SVGID_7_" x="462" y="250" width="1884" height="1972"/>
				</defs>
				<clipPath id="SVGID_8_">
					<use xlink:href="#SVGID_7_"  overflow="visible"/>
				</clipPath>
				<path clip-path="url(#SVGID_8_)" fill-rule="evenodd" clip-rule="evenodd" fill="#FFFFFF" d="M1243,519
					c-25.927-86.211-133-114-133-114l-257,12l-61,69C1037.035,402.543,1243,519,1243,519 M1299,676l13,1c0,0-335.732-110.81-312,315
					l2-5v-9l3-20l8-48l40-104l66-78l62-35l55-18l42-1L1299,676z M1559,692l4-119l-157-261l-231-62l-31,23
					C1144,273,1458.631,309.376,1559,692 M924,1413c0,0,164.645-98.319,59-401C983,1012,1042.046,1279.948,924,1413 M462,1441
					c260.102,226.088,405-28,405-28C699.596,1597.52,462,1441,462,1441 M759,1033c-24.306,146.654-120,236-120,236
					C808.066,1208.977,759,1033,759,1033 M990,680c0,0-260.96-11.517-279,223C711,903,768.059,722.87,990,680 M1260,586
					c0,0,171.563,3.467,196,128C1456,714,1482.002,559.36,1260,586 M1380,761c0,0-44.377-13.805-66,10s-54,37-54,37
					c52.455-1.793,60-20,60-20C1330.443,764.96,1380,761,1380,761 M1981,2114l-361-144l-103-105c-49.238-66.521-107-88-107-88
					l-58-28l-31,2l107,116l68,117c80.396,94.577,251,161,251,161c-30.748-27.862-55-77-55-77c86.018,60.521,252,94,252,94L1981,2114
					z M2237,1398l-3.002-1.691l-0.502,0.656L2237,1398z M2338,1409c-81.162,125.135-248,228-248,228l-12-35l33-45l122.496-160.035
					l-16.01-4.73L2216,1392l-202,176l-22-48l106-149l95,14l24.486,7.234l12.896,2.037L1804,1154c44.624,86.386,135,137,135,137
					l107,52h9l13,4l-125,129c-73.229-22.078-101-76-101-76c-2.838,21.046,48,107,48,107l62,78l99,87h52l56-12l99-96l88-150
					L2338,1409z M2235,1395l-4.617-0.729l3.615,2.037L2235,1395z M1968,1095l47,33l103,24l63-31l17-84l-30-101l-17-76l-60-37
					C2110.945,1043.036,1968,1095,1968,1095 M1464,1013c26.799-42.635,136.73-169.076,252-109c129.553,67.52,240,41,240,41l40-49
					l-96-110l-87-8l-154,33l-147,88L1464,1013z M1652,1208c0,0,76.926,11.913,100-33v-80l-11-36l-121-21l-85,59l18,55l40-35l57-15
					l30,59l-4,29L1652,1208z M2013,2132l-48,50l10,25c0,0,66.16-121.109,94,15l24-35l-35-65L2013,2132z"/>
			</g>
		</g>
		<path clip-path="url(#SVGID_6_)" fill-rule="evenodd" clip-rule="evenodd" fill="#FFFFFF" d="M1523,802
			c0,0,286.528-163.078,537,14l25-30l-291-108l-293,86L1523,802z M1857,761l-121,11l-66,41l89,2l22-44l73,3l-32,43
			c0,0,222.528,30.13,118,132c0,0,80.118-6.089,112-96L1857,761z M2125,1131l7,21l57,16l14,25l-26,12l-47,3l-74-4l30,46l106,40
			l153,26l5-43l-63-41l-21-74l-71-276l-70-25C2255.125,1113.815,2125,1131,2125,1131 M1969,1199l50,27l23-61l-66-56l-60-1l43,32
			L1969,1199z M2004,971l-36,18l-127,48l-80,16l-11,41l54,29l41-17l48-21C1893,1085,1996.262,1005.828,2004,971 M2338,1332l-401-105
			c0,0,23.661,53.012,297,171l106,13c0,0-76.102,150.901-141,202c0,0-106.664,80.322-147,43c0,0-137.629-119.327-166-156
			c0,0,17.882,52.105,55,90c37.117,37.894,119,131,119,131l218-146l154-215L2338,1332z M1582,1154l10,31l23,14l34,5l32-14l-7-45
			l-26-43l-43,7L1582,1154z M1682,1039l-62,5l-12,28c0,0,113.641-27.063,144,93l6-34l-17-53L1682,1039z M1756,1199l-24,81
			c0,0-17.165,53.033,23,103l32,33l-9-27l-17-47l1-114L1756,1199z M2015,1567l-7-45l70-130l-116,126L2015,1567z M2025,1580l68,59
			l-10-51l142-175L2025,1580z M1465,1632l67,11l29-73l-60-17L1465,1632z M1515,1470l-5,56l49,11l40-32l-11-54L1515,1470z M1521,1271
			l-74,45l8,76l55,57l27-16l-19-81l32-75L1521,1271z M1561,1179l-90,36c0,0-49.813-93.521,63-324l-83,70l-40,147l4,169l12,20l67-27
			l71-44L1561,1179z M1900,1886v-15l-47-27l-106-73l-96-27C1745.768,1844.232,1900,1886,1900,1886 M1601,1790
			c198.942,179.962,342,193,342,193l2-21l-326-175L1601,1790z M1457,1501l29-2l5-30l-65-18l-46,120l69,30l10-28l-17-31L1457,1501z
			 M1558,689l6,20l14-84l-32-145l-33-102l-115-99l-228-27l-55,20C1542.381,280.191,1558,689,1558,689 M1190,445
			c-64.336-64.006-249-64-249-64l-81,18l-56,58C1026.278,377.192,1190,445,1190,445 M999.965,1003.094
			c0,0,44.918-351.252,319.087-325.198C1319.053,677.896,1002.899,589.584,999.965,1003.094"/>
		<path clip-path="url(#SVGID_6_)" fill-rule="evenodd" clip-rule="evenodd" d="M1742,1327l45,90l-13-56c0,0-11.908-32.662,1-80
			l11-37l92,23l-123-69L1742,1327z M1938,1290l36,51l-46,92l9,23l118-113L1938,1290z M2092,1357l-95,162l9,12l188-147L2092,1357z
			 M2232,1396l-164,188l15,22l252-196L2232,1396z M1611,1304l-13-4c0,0,2.734,15.402-24,55l6,59c0,0,39.849,3.624,56,43
			c0,0,30.59,16.235,34,29l2-16C1672,1470,1603.257,1401.032,1611,1304 M1824,1658l27,7l-20-16L1824,1658z M697,962
			c-34.654,132.479-83,8-83,8l31,196c0,0,68.691-66.62,98-189c29.309-122.381,85-146,85-146S731.654,829.521,697,962 M1122,863
			l55,11c61.373-116.551,140-195,140-195C1236.065,693.668,1122,863,1122,863 M1206,559c255.251-69.772,318,172,318,172l-46,37
			c-90.135-92.292-157-19-157-19c84.331-19.569,114,37,114,37l97-18l31-77C1420.599,413.539,1206,559,1206,559 M857,1320
			c78.878,125.931-32,210-32,210l76-25l27-60C903.38,1337.446,857,1320,857,1320 M394,1371c0,0-29.697,53.3-16,114l71,22
			C449,1507,398.823,1464.314,394,1371 M245,1106c-23.438,112.512,59,148,59,148l9-65C259.223,1188.897,245,1106,245,1106 M1243,518
			c27.157-208.874-271-179-271-179l-43,44C1175.466,365.026,1243,518,1243,518 M848,1004c14.484,115.694-24,150-24,150
			c87.744-71.144,67-142,67-142c-26.942-91.982,40-152,40-152S833.516,888.306,848,1004 M569,1393c157.357,66.218,185-64,185-64
			C709.28,1412.815,569,1393,569,1393"/>
	</g>
</g>
</svg>
