<?xml version="1.0" encoding="utf-8"?>
<!-- Generator: Adobe Illustrator 18.0.0, SVG Export Plug-In . SVG Version: 6.00 Build 0)  -->
<!DOCTYPE svg PUBLIC "-//W3C//DTD SVG 1.1//EN" "http://www.w3.org/Graphics/SVG/1.1/DTD/svg11.dtd">
<svg version="1.1" id="Layer_1" xmlns="http://www.w3.org/2000/svg" xmlns:xlink="http://www.w3.org/1999/xlink" x="0px" y="0px"
	 viewBox="0 0 256 256" enable-background="new 0 0 256 256" xml:space="preserve">
<title>smilie</title>
<desc>Created with Sketch.</desc>
<path id="Emoji" fill="#FEE554" d="M128,256C57.3,256,0,198.7,0,128S57.3,0,128,0s128,57.3,128,128S198.7,256,128,256z M83.5,118
	c8.6,0,15.5-6.9,15.5-15.5S92.1,87,83.5,87S68,93.9,68,102.5S74.9,118,83.5,118z M172.5,118c8.6,0,15.5-6.9,15.5-15.5
	S181.1,87,172.5,87S157,93.9,157,102.5S163.9,118,172.5,118z M187.6,161.6c2.5-2.5,2.5-6.7,0-9.2c-2.5-2.5-6.7-2.5-9.2,0
	c-14.1,14.1-32.9,21.9-52.9,21.9c-20,0-38.8-7.8-52.9-21.9c-2.5-2.5-6.7-2.5-9.2,0c-2.5,2.5-2.5,6.7,0,9.2
	c16.6,16.6,38.7,25.7,62.1,25.7C148.9,187.3,171,178.2,187.6,161.6z"/>
</svg>
