<?xml version="1.0" encoding="iso-8859-1"?>
<!-- Generator: Adobe Illustrator 19.0.0, SVG Export Plug-In . SVG Version: 6.00 Build 0)  -->
<svg xmlns="http://www.w3.org/2000/svg" xmlns:xlink="http://www.w3.org/1999/xlink" version="1.1" id="Capa_1" x="0px" y="0px" viewBox="0 0 384 384" style="enable-background:new 0 0 384 384;" xml:space="preserve" width="512px" height="512px">
<g>
	<g>
		<polygon points="160,80 160,112 272,112 272,0 0,0 0,112 80,112 80,352 192,352 192,272 160,272 160,320 112,320 112,80 32,80     32,32 240,32 240,80   " fill="#FFFFFF"/>
	</g>
</g>
<g>
	<g>
		<path d="M160,144v96h64v144h96V240h64v-96H160z M352,208h-64v144h-32V208h-64v-32h160V208z" fill="#FFFFFF"/>
	</g>
</g>
<g>
</g>
<g>
</g>
<g>
</g>
<g>
</g>
<g>
</g>
<g>
</g>
<g>
</g>
<g>
</g>
<g>
</g>
<g>
</g>
<g>
</g>
<g>
</g>
<g>
</g>
<g>
</g>
<g>
</g>
</svg>
