<?xml version="1.0" encoding="utf-8"?>
<!-- Generator: Adobe Illustrator 23.0.2, SVG Export Plug-In . SVG Version: 6.00 Build 0)  -->
<svg version="1.1" xmlns="http://www.w3.org/2000/svg" xmlns:xlink="http://www.w3.org/1999/xlink" x="0px" y="0px"
	 viewBox="0 0 2560 2560" style="enable-background:new 0 0 2560 2560;" xml:space="preserve">
<style type="text/css">
	.st0{enable-background:new    ;}
	.st1{fill:#2164AF;}
	.st2{fill-rule:evenodd;clip-rule:evenodd;fill:#2164AF;}
	.st3{opacity:0.2509804;clip-path:url(#SVGID_2_);}
	.st4{fill-rule:evenodd;clip-rule:evenodd;fill:#FFFFFF;}
	.st5{clip-path:url(#SVGID_2_);}
	.st6{fill-rule:evenodd;clip-rule:evenodd;}
</style>
<g id="Layer_3">
	<g id="Knight_copy_1_" class="st0">
		<g>
			<g id="Knight_copy_11_">
				<g>
					<path d="M2018.9052734,2367.3232422c-4.796875-0.0009766-9.6767578-0.3173828-14.5039063-0.9404297
						c-2.9951172-0.3857422-5.9648438-0.953125-8.8925781-1.6982422
						c-8.15625-2.0751953-36.6660156-10.9042969-61.0771484-37.3974609
						c-3.3417969-3.6279297-7.0175781-8.0595703-10.6962891-13.3183594
						c-1.8378906-0.0576172-3.6884766-0.1826172-5.5449219-0.3769531
						c-10.8164063-1.1318359-266.9980469-29.7841797-448.7128906-208.0537109
						c-9.9199219-9.7314453-16.9414063-22.0283203-20.2802734-35.5185547
						c-0.1230469-0.4902344-14.6123047-57.8789063-42.3994141-118.5996094
						c-30.0595703-65.6845703-65.4375-111.296875-94.6347656-122.0107422
						c-24.0126953-8.8115234-41.2050781-28.8837891-47.0146484-52.5556641
						c-0.6557617-0.0117188-1.3110352-0.0175781-1.9741211-0.0175781c-7.1118164,0-14.5454102,0.6777344-22.0927734,2.0146484
						c-4.3979492,0.7783203-8.7919922,1.15625-13.128418,1.1572266
						c-31.4223633,0.0019531-60.1645508-19.8095703-70.7929688-50.3759766
						c-12.0952148-34.7861328,2.855957-73.2070313,35.2827148-90.6669922l52-28
						c8.8227539-4.7509766,18.5083008-7.6855469,28.4838867-8.6308594
						c2.3725586-0.2246094,11.1923828-0.9580078,25.0830078-0.9580078c9.9433594,0,22.4560547,0.3837891,36.9228516,1.6240234
						c-11.3847656-18.7255859-14.3876953-42.1337891-6.6298828-64.0390625l34-96
						c6.6699219-18.8310547,20.5771484-34.2236328,38.6376953-42.7636719c2.0029297-0.9472656,4.0390625-1.8017578,6.1015625-2.5625
						c-9.8857422-21.8085938-15.6640625-39.8320313-18.0117188-55.8759766
						c-11.5126953-8.3320313-20.5527344-19.8613281-25.8535156-33.3769531
						c-13.5322266-34.5102539-20.1201172-97.0410156-16.7822266-159.3061523
						c1.09375-20.4121094,3.421875-43.9785156,7.9335938-68.8227539
						c-33.1855469-19.1611328-46.7373047-61.0058594-30.5361328-96.4394531
						c12.2470703-26.7871094,25.171875-52.1123047,38.7431641-75.9291992
						c-60.7539063,26.1625977-118.5087891,39.4287109-171.6806641,39.4287109c-0.0068359,0-0.0107422,0-0.0170898,0
						c-12.5678711-0.0004883-24.0268555-0.7480469-34.3740234-1.9741211
						c-13.6420898,27.0068359-20.8789063,56.2192383-24.7128906,79.1445313
						c-6.3920898,38.2236328-5.1069336,68.7504883-4.9277344,72.2939453
						c13.3129883,165.7148438-13.9790039,286.6640625-81.1235352,359.4746094
						c-31.3408203,33.9853516-67.9262695,52.8642578-99.9584961,61.2939453
						c-40.7202148,46.7128906-85.0258789,82.5839844-132.0083008,106.8300781
						c-49.1645508,25.3720703-101.3857422,38.2373047-155.2133789,38.2373047
						c-64.5249023,0-132.0244141-19.0849609-195.2006836-55.1904297
						c-26.5258789-15.1601563-47.2744141-30.4189453-60.7133789-41.2138672
						c-63.0576172-14.9619141-118.8671875-38.7851563-166.1201172-70.9423828
						c-43.1401367-29.3583984-79.0683594-65.5146484-106.7871094-107.4648438
						c-42.5444336-64.3886719-52.777832-123.2587891-54.9145508-139.7988281
						c-2.4921875-14.8623047-8.8686523-65.5336914,7.5922852-123.5957031
						c11.4306641-40.3188477,31.3173828-76.0112305,59.1083984-106.0854492
						c33.5063477-36.2602539,77.7661133-63.4174805,131.5493164-80.71875
						c30.0771484-9.675293,57.1708984-14.378418,82.8295898-14.378418c63.4902344,0,101.5327148,29.2241211,122.2661133,53.7397461
						c26.0366211,30.7871094,40.472168,71.9350586,42.9067383,122.3022461
						c1.5332031,31.7348633-2.2939453,56.5356445-3.0761719,61.1850586
						c-4.8300781,28.6870117-25.8125,51.9931641-53.8359375,59.7983398
						c-6.6523438,1.8525391-13.4174805,2.7524414-20.1186523,2.7524414
						c-21.5307617,0.0004883-42.4160156-9.2875977-56.878418-26.1113281
						c-7.2817383-8.4707031-12.8583984-12.6523438-16.2070313-14.6572266
						c-2.6484375,4.2631836-5.7700195,12.6723633-4.4360352,23.9765625
						c1.9916992,16.8789063,8.5864258,23.4287109,14.7744141,27.6088867
						c3.9711914,2.6835938,7.9038086,4.2290039,9.8945313,4.9121094c1.2646484,0.4335938,2.0615234,0.6333008,2.2080078,0.6694336
						c0.0214844,0.0048828,0.0292969,0.0068359,0.027832,0.0068359c-0.0048828,0-0.0898438-0.0175781-0.1826172-0.0375977
						c-0.2353516-0.0380859-1.9389648-0.3603516-1.9389648-0.3603516L379,1313l14.6538086-73.5546875
						c15.8325195,3.1542969,30.9404297,4.7529297,44.9038086,4.7514648
						c47.3945313-0.0039063,83.7949219-18.2802734,111.2827148-55.8725586
						c14.6699219-20.0629883,22.9121094-40.4897461,26.6279297-51.2988281
						c-7.3647461-159.2602539,3.6171875-300.2402344,32.6713867-419.1953125
						c24.8203125-101.6235352,62.9467773-188.1220703,113.3198242-257.0927734
						c66.7373047-91.3764648,138.5439453-129.6494141,176.144043-144.4946289
						c46.4941406-47.8623047,108.1806641-83.7358398,179.7333984-104.3237305
						c57.6679688-16.5927734,102.4428711-17.8222656,107.3583984-17.9077148
						c0.1420898-0.0024414,0.284668-0.0043945,0.4267578-0.0063477c2.746582-0.0322266,5.4614258-0.0478516,8.171875-0.0478516
						c74.1967773,0,140.8691406,12.171875,198.1669922,36.1777344
						c52.6376953,22.0532227,97.8955078,54.2021484,134.515625,95.5532227
						c31.1914063,35.2197266,56.125,77.1635742,74.1083984,124.6665039
						c13.8808594,36.6655273,23.65625,76.7114258,29.0537109,119.0258789
						c4.4423828,34.815918,5.2158203,65.3657227,4.7822266,88.0073242
						c43.0859375-15.2246094,88.4394531-22.894043,135.7041016-22.894043c43.1416016,0,87.7988281,6.5200195,132.7314453,19.3803711
						c35.0537109,10.0322266,70.4013672,23.9443359,105.0605469,41.3486328
						c58.0253906,29.1367188,94.6728516,58.1777344,98.6601563,61.3930664
						c3.7246094,3.0029297,7.09375,6.2993164,10.0966797,9.8295898
						c17.4433594,1.9150391,34.0009766,9.9277344,46.4550781,23.1669922
						c134.953125,143.4638672,166.0625,328.2949219,173.2285156,404.5966797l51.6894531,45.4873047
						c14.8896484,13.1025391,23.5917969,31.1420898,25.1884766,49.9912109
						c8.0996094,1.4394531,12.6757813,2.1845703,13.0898438,2.25c25.6757813,4.0996094,47.3974609,21.2060547,57.4013672,45.2060547
						c10.0039063,23.9990234,6.8642578,51.46875-8.2978516,72.5917969
						c-160.7412109,223.9316406-363.6054688,356.6767578-372.1621094,362.2177734
						c-12.5029297,8.0966797-26.6669922,12.0488281-40.7402344,12.0488281
						c-19.6201172,0-39.0654297-7.6796875-53.5996094-22.5146484l-17.4394531-17.8007813
						c-4.6191406,0.875-9.3046875,1.3134766-13.9960938,1.3134766c-15.8896484,0-31.8134766-5.0322266-45.2324219-15.1816406
						l-27.8857422-21.0908203c4.9042969,12.5390625,6.4873047,26.5253906,3.921875,40.6630859
						c-0.6396484,3.5283203-1.5195313,6.9580078-2.6181641,10.2724609
						c23.0585938,0.8789063,44.9443359,12.3964844,58.6396484,32.0078125
						c2.5439453,3.6416016,8.5634766,12.7958984,14.8564453,26.1787109
						c9.0302734-3.6757813,18.7001953-5.4990234,28.4072266-5.4990234c17.7441406,0,35.6171875,6.0869141,49.9707031,18.0634766
						c88.9072266,74.1855469,108.7099609,157.0351563,109.6660156,213.4736328
						c1.0166016,59.9472656-18.6142578,102.5683594-22.5595703,110.5029297
						c-1.6884766,3.3955078-3.6113281,6.6210938-5.7431641,9.6630859c4.6533203,23.3691406,4.5419922,49.96875-0.2714844,80.2675781
						c-1.0498047,7.0517578-4.7675781,27.6162109-14.8496094,49.6035156
						c-8.1621094,17.8007813-18.8183594,32.7773438-31.671875,44.5146484
						c-20.6923828,18.8955078-46.1777344,28.8837891-73.6982422,28.8837891
						C2018.9160156,2367.3232422,2018.9121094,2367.3232422,2018.9052734,2367.3232422z M1831.8076172,1656.6816406
						c2.5341797,0.8613281,5.046875,1.6884766,7.5195313,2.4746094l-6.7714844-5.1210938
						C1832.3232422,1654.9199219,1832.0742188,1655.8007813,1831.8076172,1656.6816406z M1641.1025391,1453.7177734
						c8.2607422,4.3710938,15.7851563,10.3330078,22.0859375,17.7587891
						c0.8623047,1.0166016,1.9707031,2.1914063,3.3164063,3.515625c0.4501953-2.2070313,1.0019531-4.4023438,1.6582031-6.5800781
						c-50.9648438-50.9501953-57.4765625-102.4990234-58.1035156-120.2666016l-2.3574219-42.4179688
						c-1.3408203-0.4121094-2.6738281-0.8417969-3.9970703-1.2880859c-1.4746094,5.8085938-3.6650391,11.5097656-6.59375,16.9765625
						l-18.5029297,34.5380859l7.0898438,51.8076172C1608.8222656,1414.8125,1628.3623047,1430.84375,1641.1025391,1453.7177734z"/>
				</g>
				<g>
					<path d="M2018.9052734,2367.3232422c-4.796875-0.0009766-9.6767578-0.3173828-14.5039063-0.9404297
						c-2.9951172-0.3857422-5.9648438-0.953125-8.8925781-1.6982422
						c-8.15625-2.0751953-36.6660156-10.9042969-61.0771484-37.3974609
						c-3.3417969-3.6279297-7.0175781-8.0595703-10.6962891-13.3183594
						c-1.8378906-0.0576172-3.6884766-0.1826172-5.5449219-0.3769531
						c-10.8164063-1.1318359-266.9980469-29.7841797-448.7128906-208.0537109
						c-9.9199219-9.7314453-16.9414063-22.0283203-20.2802734-35.5185547
						c-0.1230469-0.4902344-14.6123047-57.8789063-42.3994141-118.5996094
						c-30.0595703-65.6845703-65.4375-111.296875-94.6347656-122.0107422
						c-24.0126953-8.8115234-41.2050781-28.8837891-47.0146484-52.5556641
						c-0.6557617-0.0117188-1.3110352-0.0175781-1.9741211-0.0175781c-7.1118164,0-14.5454102,0.6777344-22.0927734,2.0146484
						c-4.3979492,0.7783203-8.7919922,1.15625-13.128418,1.1572266
						c-31.4223633,0.0019531-60.1645508-19.8095703-70.7929688-50.3759766
						c-12.0952148-34.7861328,2.855957-73.2070313,35.2827148-90.6669922l52-28
						c8.8227539-4.7509766,18.5083008-7.6855469,28.4838867-8.6308594
						c2.3725586-0.2246094,11.1923828-0.9580078,25.0830078-0.9580078c9.9433594,0,22.4560547,0.3837891,36.9228516,1.6240234
						c-11.3847656-18.7255859-14.3876953-42.1337891-6.6298828-64.0390625l34-96
						c6.6699219-18.8310547,20.5771484-34.2236328,38.6376953-42.7636719c2.0029297-0.9472656,4.0390625-1.8017578,6.1015625-2.5625
						c-9.8857422-21.8085938-15.6640625-39.8320313-18.0117188-55.8759766
						c-11.5126953-8.3320313-20.5527344-19.8613281-25.8535156-33.3769531
						c-13.5322266-34.5102539-20.1201172-97.0410156-16.7822266-159.3061523
						c1.09375-20.4121094,3.421875-43.9785156,7.9335938-68.8227539
						c-33.1855469-19.1611328-46.7373047-61.0058594-30.5361328-96.4394531
						c12.2470703-26.7871094,25.171875-52.1123047,38.7431641-75.9291992
						c-60.7539063,26.1625977-118.5087891,39.4287109-171.6806641,39.4287109c-0.0068359,0-0.0107422,0-0.0170898,0
						c-12.5678711-0.0004883-24.0268555-0.7480469-34.3740234-1.9741211
						c-13.6420898,27.0068359-20.8789063,56.2192383-24.7128906,79.1445313
						c-6.3920898,38.2236328-5.1069336,68.7504883-4.9277344,72.2939453
						c13.3129883,165.7148438-13.9790039,286.6640625-81.1235352,359.4746094
						c-31.3408203,33.9853516-67.9262695,52.8642578-99.9584961,61.2939453
						c-40.7202148,46.7128906-85.0258789,82.5839844-132.0083008,106.8300781
						c-49.1645508,25.3720703-101.3857422,38.2373047-155.2133789,38.2373047
						c-64.5249023,0-132.0244141-19.0849609-195.2006836-55.1904297
						c-26.5258789-15.1601563-47.2744141-30.4189453-60.7133789-41.2138672
						c-63.0576172-14.9619141-118.8671875-38.7851563-166.1201172-70.9423828
						c-43.1401367-29.3583984-79.0683594-65.5146484-106.7871094-107.4648438
						c-42.5444336-64.3886719-52.777832-123.2587891-54.9145508-139.7988281
						c-2.4921875-14.8623047-8.8686523-65.5336914,7.5922852-123.5957031
						c11.4306641-40.3188477,31.3173828-76.0112305,59.1083984-106.0854492
						c33.5063477-36.2602539,77.7661133-63.4174805,131.5493164-80.71875
						c30.0771484-9.675293,57.1708984-14.378418,82.8295898-14.378418c63.4902344,0,101.5327148,29.2241211,122.2661133,53.7397461
						c26.0366211,30.7871094,40.472168,71.9350586,42.9067383,122.3022461
						c1.5332031,31.7348633-2.2939453,56.5356445-3.0761719,61.1850586
						c-4.8300781,28.6870117-25.8125,51.9931641-53.8359375,59.7983398
						c-6.6523438,1.8525391-13.4174805,2.7524414-20.1186523,2.7524414
						c-21.5307617,0.0004883-42.4160156-9.2875977-56.878418-26.1113281
						c-7.2817383-8.4707031-12.8583984-12.6523438-16.2070313-14.6572266
						c-2.6484375,4.2631836-5.7700195,12.6723633-4.4360352,23.9765625
						c1.9916992,16.8789063,8.5864258,23.4287109,14.7744141,27.6088867
						c3.9711914,2.6835938,7.9038086,4.2290039,9.8945313,4.9121094c1.2646484,0.4335938,2.0615234,0.6333008,2.2080078,0.6694336
						c0.0214844,0.0048828,0.0292969,0.0068359,0.027832,0.0068359c-0.0048828,0-0.0898438-0.0175781-0.1826172-0.0375977
						c-0.2353516-0.0380859-1.9389648-0.3603516-1.9389648-0.3603516L379,1313l14.6538086-73.5546875
						c15.8325195,3.1542969,30.9404297,4.7529297,44.9038086,4.7514648
						c47.3945313-0.0039063,83.7949219-18.2802734,111.2827148-55.8725586
						c14.6699219-20.0629883,22.9121094-40.4897461,26.6279297-51.2988281
						c-7.3647461-159.2602539,3.6171875-300.2402344,32.6713867-419.1953125
						c24.8203125-101.6235352,62.9467773-188.1220703,113.3198242-257.0927734
						c66.7373047-91.3764648,138.5439453-129.6494141,176.144043-144.4946289
						c46.4941406-47.8623047,108.1806641-83.7358398,179.7333984-104.3237305
						c57.6679688-16.5927734,102.4428711-17.8222656,107.3583984-17.9077148
						c0.1420898-0.0024414,0.284668-0.0043945,0.4267578-0.0063477c2.746582-0.0322266,5.4614258-0.0478516,8.171875-0.0478516
						c74.1967773,0,140.8691406,12.171875,198.1669922,36.1777344
						c52.6376953,22.0532227,97.8955078,54.2021484,134.515625,95.5532227
						c31.1914063,35.2197266,56.125,77.1635742,74.1083984,124.6665039
						c13.8808594,36.6655273,23.65625,76.7114258,29.0537109,119.0258789
						c4.4423828,34.815918,5.2158203,65.3657227,4.7822266,88.0073242
						c43.0859375-15.2246094,88.4394531-22.894043,135.7041016-22.894043c43.1416016,0,87.7988281,6.5200195,132.7314453,19.3803711
						c35.0537109,10.0322266,70.4013672,23.9443359,105.0605469,41.3486328
						c58.0253906,29.1367188,94.6728516,58.1777344,98.6601563,61.3930664
						c3.7246094,3.0029297,7.09375,6.2993164,10.0966797,9.8295898
						c17.4433594,1.9150391,34.0009766,9.9277344,46.4550781,23.1669922
						c134.953125,143.4638672,166.0625,328.2949219,173.2285156,404.5966797l51.6894531,45.4873047
						c14.8896484,13.1025391,23.5917969,31.1420898,25.1884766,49.9912109
						c8.0996094,1.4394531,12.6757813,2.1845703,13.0898438,2.25c25.6757813,4.0996094,47.3974609,21.2060547,57.4013672,45.2060547
						c10.0039063,23.9990234,6.8642578,51.46875-8.2978516,72.5917969
						c-160.7412109,223.9316406-363.6054688,356.6767578-372.1621094,362.2177734
						c-12.5029297,8.0966797-26.6669922,12.0488281-40.7402344,12.0488281
						c-19.6201172,0-39.0654297-7.6796875-53.5996094-22.5146484l-17.4394531-17.8007813
						c-4.6191406,0.875-9.3046875,1.3134766-13.9960938,1.3134766c-15.8896484,0-31.8134766-5.0322266-45.2324219-15.1816406
						l-27.8857422-21.0908203c4.9042969,12.5390625,6.4873047,26.5253906,3.921875,40.6630859
						c-0.6396484,3.5283203-1.5195313,6.9580078-2.6181641,10.2724609
						c23.0585938,0.8789063,44.9443359,12.3964844,58.6396484,32.0078125
						c2.5439453,3.6416016,8.5634766,12.7958984,14.8564453,26.1787109
						c9.0302734-3.6757813,18.7001953-5.4990234,28.4072266-5.4990234c17.7441406,0,35.6171875,6.0869141,49.9707031,18.0634766
						c88.9072266,74.1855469,108.7099609,157.0351563,109.6660156,213.4736328
						c1.0166016,59.9472656-18.6142578,102.5683594-22.5595703,110.5029297
						c-1.6884766,3.3955078-3.6113281,6.6210938-5.7431641,9.6630859c4.6533203,23.3691406,4.5419922,49.96875-0.2714844,80.2675781
						c-1.0498047,7.0517578-4.7675781,27.6162109-14.8496094,49.6035156
						c-8.1621094,17.8007813-18.8183594,32.7773438-31.671875,44.5146484
						c-20.6923828,18.8955078-46.1777344,28.8837891-73.6982422,28.8837891
						C2018.9160156,2367.3232422,2018.9121094,2367.3232422,2018.9052734,2367.3232422z M1831.8076172,1656.6816406
						c2.5341797,0.8613281,5.046875,1.6884766,7.5195313,2.4746094l-6.7714844-5.1210938
						C1832.3232422,1654.9199219,1832.0742188,1655.8007813,1831.8076172,1656.6816406z M1641.1025391,1453.7177734
						c8.2607422,4.3710938,15.7851563,10.3330078,22.0859375,17.7587891
						c0.8623047,1.0166016,1.9707031,2.1914063,3.3164063,3.515625c0.4501953-2.2070313,1.0019531-4.4023438,1.6582031-6.5800781
						c-50.9648438-50.9501953-57.4765625-102.4990234-58.1035156-120.2666016l-2.3574219-42.4179688
						c-1.3408203-0.4121094-2.6738281-0.8417969-3.9970703-1.2880859c-1.4746094,5.8085938-3.6650391,11.5097656-6.59375,16.9765625
						l-18.5029297,34.5380859l7.0898438,51.8076172C1608.8222656,1414.8125,1628.3623047,1430.84375,1641.1025391,1453.7177734z"/>
				</g>
				<g>
					<path d="M2018.9052734,2367.3232422c-4.796875-0.0009766-9.6767578-0.3173828-14.5039063-0.9404297
						c-2.9951172-0.3857422-5.9648438-0.953125-8.8925781-1.6982422
						c-8.15625-2.0751953-36.6660156-10.9042969-61.0771484-37.3974609
						c-3.3417969-3.6279297-7.0175781-8.0595703-10.6962891-13.3183594
						c-1.8378906-0.0576172-3.6884766-0.1826172-5.5449219-0.3769531
						c-10.8164063-1.1318359-266.9980469-29.7841797-448.7128906-208.0537109
						c-9.9199219-9.7314453-16.9414063-22.0283203-20.2802734-35.5185547
						c-0.1230469-0.4902344-14.6123047-57.8789063-42.3994141-118.5996094
						c-30.0595703-65.6845703-65.4375-111.296875-94.6347656-122.0107422
						c-24.0126953-8.8115234-41.2050781-28.8837891-47.0146484-52.5556641
						c-0.6557617-0.0117188-1.3110352-0.0175781-1.9741211-0.0175781c-7.1118164,0-14.5454102,0.6777344-22.0927734,2.0146484
						c-4.3979492,0.7783203-8.7919922,1.15625-13.128418,1.1572266
						c-31.4223633,0.0019531-60.1645508-19.8095703-70.7929688-50.3759766
						c-12.0952148-34.7861328,2.855957-73.2070313,35.2827148-90.6669922l52-28
						c8.8227539-4.7509766,18.5083008-7.6855469,28.4838867-8.6308594
						c2.3725586-0.2246094,11.1923828-0.9580078,25.0830078-0.9580078c9.9433594,0,22.4560547,0.3837891,36.9228516,1.6240234
						c-11.3847656-18.7255859-14.3876953-42.1337891-6.6298828-64.0390625l34-96
						c6.6699219-18.8310547,20.5771484-34.2236328,38.6376953-42.7636719c2.0029297-0.9472656,4.0390625-1.8017578,6.1015625-2.5625
						c-9.8857422-21.8085938-15.6640625-39.8320313-18.0117188-55.8759766
						c-11.5126953-8.3320313-20.5527344-19.8613281-25.8535156-33.3769531
						c-13.5322266-34.5102539-20.1201172-97.0410156-16.7822266-159.3061523
						c1.09375-20.4121094,3.421875-43.9785156,7.9335938-68.8227539
						c-33.1855469-19.1611328-46.7373047-61.0058594-30.5361328-96.4394531
						c12.2470703-26.7871094,25.171875-52.1123047,38.7431641-75.9291992
						c-60.7539063,26.1625977-118.5087891,39.4287109-171.6806641,39.4287109c-0.0068359,0-0.0107422,0-0.0170898,0
						c-12.5678711-0.0004883-24.0268555-0.7480469-34.3740234-1.9741211
						c-13.6420898,27.0068359-20.8789063,56.2192383-24.7128906,79.1445313
						c-6.3920898,38.2236328-5.1069336,68.7504883-4.9277344,72.2939453
						c13.3129883,165.7148438-13.9790039,286.6640625-81.1235352,359.4746094
						c-31.3408203,33.9853516-67.9262695,52.8642578-99.9584961,61.2939453
						c-40.7202148,46.7128906-85.0258789,82.5839844-132.0083008,106.8300781
						c-49.1645508,25.3720703-101.3857422,38.2373047-155.2133789,38.2373047
						c-64.5249023,0-132.0244141-19.0849609-195.2006836-55.1904297
						c-26.5258789-15.1601563-47.2744141-30.4189453-60.7133789-41.2138672
						c-63.0576172-14.9619141-118.8671875-38.7851563-166.1201172-70.9423828
						c-43.1401367-29.3583984-79.0683594-65.5146484-106.7871094-107.4648438
						c-42.5444336-64.3886719-52.777832-123.2587891-54.9145508-139.7988281
						c-2.4921875-14.8623047-8.8686523-65.5336914,7.5922852-123.5957031
						c11.4306641-40.3188477,31.3173828-76.0112305,59.1083984-106.0854492
						c33.5063477-36.2602539,77.7661133-63.4174805,131.5493164-80.71875
						c30.0771484-9.675293,57.1708984-14.378418,82.8295898-14.378418c63.4902344,0,101.5327148,29.2241211,122.2661133,53.7397461
						c26.0366211,30.7871094,40.472168,71.9350586,42.9067383,122.3022461
						c1.5332031,31.7348633-2.2939453,56.5356445-3.0761719,61.1850586
						c-4.8300781,28.6870117-25.8125,51.9931641-53.8359375,59.7983398
						c-6.6523438,1.8525391-13.4174805,2.7524414-20.1186523,2.7524414
						c-21.5307617,0.0004883-42.4160156-9.2875977-56.878418-26.1113281
						c-7.2817383-8.4707031-12.8583984-12.6523438-16.2070313-14.6572266
						c-2.6484375,4.2631836-5.7700195,12.6723633-4.4360352,23.9765625
						c1.9916992,16.8789063,8.5864258,23.4287109,14.7744141,27.6088867
						c3.9711914,2.6835938,7.9038086,4.2290039,9.8945313,4.9121094c1.2646484,0.4335938,2.0615234,0.6333008,2.2080078,0.6694336
						c0.0214844,0.0048828,0.0292969,0.0068359,0.027832,0.0068359c-0.0048828,0-0.0898438-0.0175781-0.1826172-0.0375977
						c-0.2353516-0.0380859-1.9389648-0.3603516-1.9389648-0.3603516L379,1313l14.6538086-73.5546875
						c15.8325195,3.1542969,30.9404297,4.7529297,44.9038086,4.7514648
						c47.3945313-0.0039063,83.7949219-18.2802734,111.2827148-55.8725586
						c14.6699219-20.0629883,22.9121094-40.4897461,26.6279297-51.2988281
						c-7.3647461-159.2602539,3.6171875-300.2402344,32.6713867-419.1953125
						c24.8203125-101.6235352,62.9467773-188.1220703,113.3198242-257.0927734
						c66.7373047-91.3764648,138.5439453-129.6494141,176.144043-144.4946289
						c46.4941406-47.8623047,108.1806641-83.7358398,179.7333984-104.3237305
						c57.6679688-16.5927734,102.4428711-17.8222656,107.3583984-17.9077148
						c0.1420898-0.0024414,0.284668-0.0043945,0.4267578-0.0063477c2.746582-0.0322266,5.4614258-0.0478516,8.171875-0.0478516
						c74.1967773,0,140.8691406,12.171875,198.1669922,36.1777344
						c52.6376953,22.0532227,97.8955078,54.2021484,134.515625,95.5532227
						c31.1914063,35.2197266,56.125,77.1635742,74.1083984,124.6665039
						c13.8808594,36.6655273,23.65625,76.7114258,29.0537109,119.0258789
						c4.4423828,34.815918,5.2158203,65.3657227,4.7822266,88.0073242
						c43.0859375-15.2246094,88.4394531-22.894043,135.7041016-22.894043c43.1416016,0,87.7988281,6.5200195,132.7314453,19.3803711
						c35.0537109,10.0322266,70.4013672,23.9443359,105.0605469,41.3486328
						c58.0253906,29.1367188,94.6728516,58.1777344,98.6601563,61.3930664
						c3.7246094,3.0029297,7.09375,6.2993164,10.0966797,9.8295898
						c17.4433594,1.9150391,34.0009766,9.9277344,46.4550781,23.1669922
						c134.953125,143.4638672,166.0625,328.2949219,173.2285156,404.5966797l51.6894531,45.4873047
						c14.8896484,13.1025391,23.5917969,31.1420898,25.1884766,49.9912109
						c8.0996094,1.4394531,12.6757813,2.1845703,13.0898438,2.25c25.6757813,4.0996094,47.3974609,21.2060547,57.4013672,45.2060547
						c10.0039063,23.9990234,6.8642578,51.46875-8.2978516,72.5917969
						c-160.7412109,223.9316406-363.6054688,356.6767578-372.1621094,362.2177734
						c-12.5029297,8.0966797-26.6669922,12.0488281-40.7402344,12.0488281
						c-19.6201172,0-39.0654297-7.6796875-53.5996094-22.5146484l-17.4394531-17.8007813
						c-4.6191406,0.875-9.3046875,1.3134766-13.9960938,1.3134766c-15.8896484,0-31.8134766-5.0322266-45.2324219-15.1816406
						l-27.8857422-21.0908203c4.9042969,12.5390625,6.4873047,26.5253906,3.921875,40.6630859
						c-0.6396484,3.5283203-1.5195313,6.9580078-2.6181641,10.2724609
						c23.0585938,0.8789063,44.9443359,12.3964844,58.6396484,32.0078125
						c2.5439453,3.6416016,8.5634766,12.7958984,14.8564453,26.1787109
						c9.0302734-3.6757813,18.7001953-5.4990234,28.4072266-5.4990234c17.7441406,0,35.6171875,6.0869141,49.9707031,18.0634766
						c88.9072266,74.1855469,108.7099609,157.0351563,109.6660156,213.4736328
						c1.0166016,59.9472656-18.6142578,102.5683594-22.5595703,110.5029297
						c-1.6884766,3.3955078-3.6113281,6.6210938-5.7431641,9.6630859c4.6533203,23.3691406,4.5419922,49.96875-0.2714844,80.2675781
						c-1.0498047,7.0517578-4.7675781,27.6162109-14.8496094,49.6035156
						c-8.1621094,17.8007813-18.8183594,32.7773438-31.671875,44.5146484
						c-20.6923828,18.8955078-46.1777344,28.8837891-73.6982422,28.8837891
						C2018.9160156,2367.3232422,2018.9121094,2367.3232422,2018.9052734,2367.3232422z M1831.8076172,1656.6816406
						c2.5341797,0.8613281,5.046875,1.6884766,7.5195313,2.4746094l-6.7714844-5.1210938
						C1832.3232422,1654.9199219,1832.0742188,1655.8007813,1831.8076172,1656.6816406z M1641.1025391,1453.7177734
						c8.2607422,4.3710938,15.7851563,10.3330078,22.0859375,17.7587891
						c0.8623047,1.0166016,1.9707031,2.1914063,3.3164063,3.515625c0.4501953-2.2070313,1.0019531-4.4023438,1.6582031-6.5800781
						c-50.9648438-50.9501953-57.4765625-102.4990234-58.1035156-120.2666016l-2.3574219-42.4179688
						c-1.3408203-0.4121094-2.6738281-0.8417969-3.9970703-1.2880859c-1.4746094,5.8085938-3.6650391,11.5097656-6.59375,16.9765625
						l-18.5029297,34.5380859l7.0898438,51.8076172C1608.8222656,1414.8125,1628.3623047,1430.84375,1641.1025391,1453.7177734z"/>
				</g>
			</g>
		</g>
		<g>
			<g id="Knight_copy_10_">
				<g>
					<path class="st1" d="M2010,1887.9998779c0,0,58.8364258,83.5224609,5,205.0001221c0,0,51.1159668-8.8127441,63,28
						C2078,2121,2139.9406738,1996.4240723,2010,1887.9998779z M1516,1864c65.2530518,40.2502441,110,43.9998779,110,43.9998779
						C1536.9016113,1652.6655273,1280,1677,1280,1677l-52.0001221,28C1348.979248,1683.5703125,1412,1777.9998779,1412,1777.9998779
						C1368.4216309,1757.0981445,1337.9998779,1759,1337.9998779,1759C1460.6157227,1803.9942627,1522,2052,1522,2052
						c165.1220703,161.9899902,404,187,404,187c-54.8303223-13.3720703-115-65-115-65c66.9125977,27.2307129,121,22,121,22
						c2.9355469-48.779541,33-83,33-83C1569.5079346,2028.7939453,1516,1864,1516,1864z M2035,2139
						c-8.5157471-3.159668-42.2376709-1.5776367-58,69s37,84,37,84c41.9560547,5.4135742,51-59,51-59
						C2077.6870117,2153.9858398,2043.515625,2142.1591797,2035,2139z M1976,2025.9998779
						C1985.5101318,1964.3000488,1949,1912,1949,1912l-4,50.9998779c-183.9483643-37.0765381-345-175-345-175
						C1794.9018555,2000.3082275,1976,2025.9998779,1976,2025.9998779z M1900.4348145,1871.470459
						C1767.4401855,1844.6755371,1651,1745,1651,1745c140.9139404,153.4328613,271.8476563,172,271.8476563,172
						c6.8758545-44.5898438-19.5209961-82.3867188-19.5209961-82.3867188L1900.4348145,1871.470459z M1640,1114
						c0,0-52.8057861-2.2871094-42.0001221,48.9998779c10.8057861,51.2869873,71.0001221,23,71.0001221,23
						s-42.4133301,6.0327148-50-25S1640,1114,1640,1114z M1776,1140c0,0-17.8273926,33.2734375-45.6655273,66.9187012
						c11.5380859-14.4199219,18.1081543-32.0559082,21.6655273-48.9188232
						c8.2590332-39.1485596-24.1184082-98.4692383-89.0001221-100.9998779C1598.1182861,1054.4691162,1576,1122,1576,1122
						c64.9719238-54.7403564,104.3037109-27.6811523,124-10c19.6962891,17.6809082,18.161499,85.1485596-34,95
						c-52.161499,9.8511963-86-28-86-28s8.7290039,56.5178223,74,58.9998779
						c35.2763672,1.3414307,58.6298828-10.7030029,73.9526367-28.2332764
						C1714.0175781,1226.2744141,1697.7280273,1242.6481934,1680,1255l5,90c0,0-0.6015625,43.6525879,54,85.9998779
						C1793.6013184,1473.34729,1872.9998779,1545,1872.9998779,1545L1740,1490l237.9998779,180l-60-109.0001221L2063,1709
						c0,0,197.6762695-128.0074463,352-343.0001221C2415,1365.9998779,1992.4533691,1298.5373535,1776,1140z M1844,792.9998779
						c-191.3588867-9.2236328-314.2543945,99.5594482-376.0001221,193c-61.7456055,93.4405518-51.1563721,253.8009033-35,295
						L1559,1205l-88,10c0,0-11.6174316-366.47052,263-225c0,0-24.1612549,23.2318115-49,35
						c0,0,161.4016113,27.7490234,319-54.0001221c0,0-71.4171143,88.1697998-231.0001221,114.0001221l40,27.9998779
						c0,0,76.9061279-25.7637939,88.0001221-33.9998779c0,0-24.1088867,25.2468262-66,51c0,0,90.2121582,56.0058594,165,77l-23-80
						l-59.0001221-19.0001221l54.0001221-15l120,25c0,0,24.5053711-32.3441162,34-75c0,0,8.4680176,49.8914795,2,88
						c0,0,76.4101563,20.6065674,89,33.0001221l8,58.9998779L2091,1224c0,0,69.0537109,53.8024902,248,71.9998779L2264,1230
						c0,0-2.3837891-226.7590332-155-389.0001221L2101,885l20,67.9998779
						C2121,952.9998779,2035.3587646,802.2236328,1844,792.9998779z M1582.9998779,1652.9998779
						c159.4415283,73.626709,252.0001221,83,252.0001221,83C1730.583374,1708.4360352,1579,1614,1579,1614
						L1582.9998779,1652.9998779z M1760,1635c0,0-122.3182373-77.6608887-154-115l1,30.9998779
						C1607,1550.9998779,1646.3867188,1590.862793,1760,1635z M1547.9998779,1480.9998779c-28.5965576,11.7547607-10,40-10,40
						s-5.5313721-17.8099365,13.0001221-25S1581,1507,1581,1507S1576.5966797,1469.2453613,1547.9998779,1480.9998779z
						 M1512,1592.9998779c14.607666-5.8011475,30.9998779,10,30.9998779,10s1.3492432-38.7093506-32.9998779-25s-10,40-10,40
						S1497.3920898,1598.8010254,1512,1592.9998779z M1480,1485l-47.0001221-17.0001221L1399,1564l48,26l-24.0001221-31L1444,1485
						H1480z M1501,1342l30-56.0001221L1462.9998779,1329C1466.5126953,1362.4387207,1514,1437,1514,1437L1501,1342z M1392,1015
						c0,0,203.5454102-401.2158203,668-200C2060,815,1638.7644043,475.2930908,1392,1015z M1187,269
						c0,0-152.4655762,2.6522217-246.000061,111.9998779c0,0-324.9313354,75.5928345-288.999939,765
						c0,0-48.6653442,211.6915283-273.000061,167c0,0-76.9401245-12.7557373-86.999939-97.9998779
						c-10.0598145-85.2443848,73.057251-158.831543,151.999939-67.0001221c0,0,33.2493896-197.3043823-148-138.999939
						C114.7507324,1067.3044434,149,1237,149,1237s19.3911133,205.2149658,288,260
						c0,0,246.1932373,233.4118652,468.999939-49.0001221c0,0,174.4146118,4.3594971,146.000061-345.9998779
						c0,0-10.2773438-148.6722412,72-242c0,0,146.8359375,80.6799316,433.9998779-171.000061
						C1557.9998779,688.999939,1609.7651367,264.052002,1187,269z"/>
				</g>
				<g>
					<path class="st1" d="M2010,1887.9998779c0,0,58.8364258,83.5224609,5,205.0001221c0,0,51.1159668-8.8127441,63,28
						C2078,2121,2139.9406738,1996.4240723,2010,1887.9998779z M1516,1864c65.2530518,40.2502441,110,43.9998779,110,43.9998779
						C1536.9016113,1652.6655273,1280,1677,1280,1677l-52.0001221,28C1348.979248,1683.5703125,1412,1777.9998779,1412,1777.9998779
						C1368.4216309,1757.0981445,1337.9998779,1759,1337.9998779,1759C1460.6157227,1803.9942627,1522,2052,1522,2052
						c165.1220703,161.9899902,404,187,404,187c-54.8303223-13.3720703-115-65-115-65c66.9125977,27.2307129,121,22,121,22
						c2.9355469-48.779541,33-83,33-83C1569.5079346,2028.7939453,1516,1864,1516,1864z M2035,2139
						c-8.5157471-3.159668-42.2376709-1.5776367-58,69s37,84,37,84c41.9560547,5.4135742,51-59,51-59
						C2077.6870117,2153.9858398,2043.515625,2142.1591797,2035,2139z M1976,2025.9998779
						C1985.5101318,1964.3000488,1949,1912,1949,1912l-4,50.9998779c-183.9483643-37.0765381-345-175-345-175
						C1794.9018555,2000.3082275,1976,2025.9998779,1976,2025.9998779z M1900.4348145,1871.470459
						C1767.4401855,1844.6755371,1651,1745,1651,1745c140.9139404,153.4328613,271.8476563,172,271.8476563,172
						c6.8758545-44.5898438-19.5209961-82.3867188-19.5209961-82.3867188L1900.4348145,1871.470459z M1640,1114
						c0,0-52.8057861-2.2871094-42.0001221,48.9998779c10.8057861,51.2869873,71.0001221,23,71.0001221,23
						s-42.4133301,6.0327148-50-25S1640,1114,1640,1114z M1776,1140c0,0-17.8273926,33.2734375-45.6655273,66.9187012
						c11.5380859-14.4199219,18.1081543-32.0559082,21.6655273-48.9188232
						c8.2590332-39.1485596-24.1184082-98.4692383-89.0001221-100.9998779C1598.1182861,1054.4691162,1576,1122,1576,1122
						c64.9719238-54.7403564,104.3037109-27.6811523,124-10c19.6962891,17.6809082,18.161499,85.1485596-34,95
						c-52.161499,9.8511963-86-28-86-28s8.7290039,56.5178223,74,58.9998779
						c35.2763672,1.3414307,58.6298828-10.7030029,73.9526367-28.2332764
						C1714.0175781,1226.2744141,1697.7280273,1242.6481934,1680,1255l5,90c0,0-0.6015625,43.6525879,54,85.9998779
						C1793.6013184,1473.34729,1872.9998779,1545,1872.9998779,1545L1740,1490l237.9998779,180l-60-109.0001221L2063,1709
						c0,0,197.6762695-128.0074463,352-343.0001221C2415,1365.9998779,1992.4533691,1298.5373535,1776,1140z M1844,792.9998779
						c-191.3588867-9.2236328-314.2543945,99.5594482-376.0001221,193c-61.7456055,93.4405518-51.1563721,253.8009033-35,295
						L1559,1205l-88,10c0,0-11.6174316-366.47052,263-225c0,0-24.1612549,23.2318115-49,35
						c0,0,161.4016113,27.7490234,319-54.0001221c0,0-71.4171143,88.1697998-231.0001221,114.0001221l40,27.9998779
						c0,0,76.9061279-25.7637939,88.0001221-33.9998779c0,0-24.1088867,25.2468262-66,51c0,0,90.2121582,56.0058594,165,77l-23-80
						l-59.0001221-19.0001221l54.0001221-15l120,25c0,0,24.5053711-32.3441162,34-75c0,0,8.4680176,49.8914795,2,88
						c0,0,76.4101563,20.6065674,89,33.0001221l8,58.9998779L2091,1224c0,0,69.0537109,53.8024902,248,71.9998779L2264,1230
						c0,0-2.3837891-226.7590332-155-389.0001221L2101,885l20,67.9998779
						C2121,952.9998779,2035.3587646,802.2236328,1844,792.9998779z M1582.9998779,1652.9998779
						c159.4415283,73.626709,252.0001221,83,252.0001221,83C1730.583374,1708.4360352,1579,1614,1579,1614
						L1582.9998779,1652.9998779z M1760,1635c0,0-122.3182373-77.6608887-154-115l1,30.9998779
						C1607,1550.9998779,1646.3867188,1590.862793,1760,1635z M1547.9998779,1480.9998779c-28.5965576,11.7547607-10,40-10,40
						s-5.5313721-17.8099365,13.0001221-25S1581,1507,1581,1507S1576.5966797,1469.2453613,1547.9998779,1480.9998779z
						 M1512,1592.9998779c14.607666-5.8011475,30.9998779,10,30.9998779,10s1.3492432-38.7093506-32.9998779-25s-10,40-10,40
						S1497.3920898,1598.8010254,1512,1592.9998779z M1480,1485l-47.0001221-17.0001221L1399,1564l48,26l-24.0001221-31L1444,1485
						H1480z M1501,1342l30-56.0001221L1462.9998779,1329C1466.5126953,1362.4387207,1514,1437,1514,1437L1501,1342z M1392,1015
						c0,0,203.5454102-401.2158203,668-200C2060,815,1638.7644043,475.2930908,1392,1015z M1187,269
						c0,0-152.4655762,2.6522217-246.000061,111.9998779c0,0-324.9313354,75.5928345-288.999939,765
						c0,0-48.6653442,211.6915283-273.000061,167c0,0-76.9401245-12.7557373-86.999939-97.9998779
						c-10.0598145-85.2443848,73.057251-158.831543,151.999939-67.0001221c0,0,33.2493896-197.3043823-148-138.999939
						C114.7507324,1067.3044434,149,1237,149,1237s19.3911133,205.2149658,288,260
						c0,0,246.1932373,233.4118652,468.999939-49.0001221c0,0,174.4146118,4.3594971,146.000061-345.9998779
						c0,0-10.2773438-148.6722412,72-242c0,0,146.8359375,80.6799316,433.9998779-171.000061
						C1557.9998779,688.999939,1609.7651367,264.052002,1187,269z"/>
				</g>
				<g>
					<path class="st1" d="M2010,1887.9998779c0,0,58.8364258,83.5224609,5,205.0001221c0,0,51.1159668-8.8127441,63,28
						C2078,2121,2139.9406738,1996.4240723,2010,1887.9998779z M1516,1864c65.2530518,40.2502441,110,43.9998779,110,43.9998779
						C1536.9016113,1652.6655273,1280,1677,1280,1677l-52.0001221,28C1348.979248,1683.5703125,1412,1777.9998779,1412,1777.9998779
						C1368.4216309,1757.0981445,1337.9998779,1759,1337.9998779,1759C1460.6157227,1803.9942627,1522,2052,1522,2052
						c165.1220703,161.9899902,404,187,404,187c-54.8303223-13.3720703-115-65-115-65c66.9125977,27.2307129,121,22,121,22
						c2.9355469-48.779541,33-83,33-83C1569.5079346,2028.7939453,1516,1864,1516,1864z M2035,2139
						c-8.5157471-3.159668-42.2376709-1.5776367-58,69s37,84,37,84c41.9560547,5.4135742,51-59,51-59
						C2077.6870117,2153.9858398,2043.515625,2142.1591797,2035,2139z M1976,2025.9998779
						C1985.5101318,1964.3000488,1949,1912,1949,1912l-4,50.9998779c-183.9483643-37.0765381-345-175-345-175
						C1794.9018555,2000.3082275,1976,2025.9998779,1976,2025.9998779z M1900.4348145,1871.470459
						C1767.4401855,1844.6755371,1651,1745,1651,1745c140.9139404,153.4328613,271.8476563,172,271.8476563,172
						c6.8758545-44.5898438-19.5209961-82.3867188-19.5209961-82.3867188L1900.4348145,1871.470459z M1640,1114
						c0,0-52.8057861-2.2871094-42.0001221,48.9998779c10.8057861,51.2869873,71.0001221,23,71.0001221,23
						s-42.4133301,6.0327148-50-25S1640,1114,1640,1114z M1776,1140c0,0-17.8273926,33.2734375-45.6655273,66.9187012
						c11.5380859-14.4199219,18.1081543-32.0559082,21.6655273-48.9188232
						c8.2590332-39.1485596-24.1184082-98.4692383-89.0001221-100.9998779C1598.1182861,1054.4691162,1576,1122,1576,1122
						c64.9719238-54.7403564,104.3037109-27.6811523,124-10c19.6962891,17.6809082,18.161499,85.1485596-34,95
						c-52.161499,9.8511963-86-28-86-28s8.7290039,56.5178223,74,58.9998779
						c35.2763672,1.3414307,58.6298828-10.7030029,73.9526367-28.2332764
						C1714.0175781,1226.2744141,1697.7280273,1242.6481934,1680,1255l5,90c0,0-0.6015625,43.6525879,54,85.9998779
						C1793.6013184,1473.34729,1872.9998779,1545,1872.9998779,1545L1740,1490l237.9998779,180l-60-109.0001221L2063,1709
						c0,0,197.6762695-128.0074463,352-343.0001221C2415,1365.9998779,1992.4533691,1298.5373535,1776,1140z M1844,792.9998779
						c-191.3588867-9.2236328-314.2543945,99.5594482-376.0001221,193c-61.7456055,93.4405518-51.1563721,253.8009033-35,295
						L1559,1205l-88,10c0,0-11.6174316-366.47052,263-225c0,0-24.1612549,23.2318115-49,35
						c0,0,161.4016113,27.7490234,319-54.0001221c0,0-71.4171143,88.1697998-231.0001221,114.0001221l40,27.9998779
						c0,0,76.9061279-25.7637939,88.0001221-33.9998779c0,0-24.1088867,25.2468262-66,51c0,0,90.2121582,56.0058594,165,77l-23-80
						l-59.0001221-19.0001221l54.0001221-15l120,25c0,0,24.5053711-32.3441162,34-75c0,0,8.4680176,49.8914795,2,88
						c0,0,76.4101563,20.6065674,89,33.0001221l8,58.9998779L2091,1224c0,0,69.0537109,53.8024902,248,71.9998779L2264,1230
						c0,0-2.3837891-226.7590332-155-389.0001221L2101,885l20,67.9998779
						C2121,952.9998779,2035.3587646,802.2236328,1844,792.9998779z M1582.9998779,1652.9998779
						c159.4415283,73.626709,252.0001221,83,252.0001221,83C1730.583374,1708.4360352,1579,1614,1579,1614
						L1582.9998779,1652.9998779z M1760,1635c0,0-122.3182373-77.6608887-154-115l1,30.9998779
						C1607,1550.9998779,1646.3867188,1590.862793,1760,1635z M1547.9998779,1480.9998779c-28.5965576,11.7547607-10,40-10,40
						s-5.5313721-17.8099365,13.0001221-25S1581,1507,1581,1507S1576.5966797,1469.2453613,1547.9998779,1480.9998779z
						 M1512,1592.9998779c14.607666-5.8011475,30.9998779,10,30.9998779,10s1.3492432-38.7093506-32.9998779-25s-10,40-10,40
						S1497.3920898,1598.8010254,1512,1592.9998779z M1480,1485l-47.0001221-17.0001221L1399,1564l48,26l-24.0001221-31L1444,1485
						H1480z M1501,1342l30-56.0001221L1462.9998779,1329C1466.5126953,1362.4387207,1514,1437,1514,1437L1501,1342z M1392,1015
						c0,0,203.5454102-401.2158203,668-200C2060,815,1638.7644043,475.2930908,1392,1015z M1187,269
						c0,0-152.4655762,2.6522217-246.000061,111.9998779c0,0-324.9313354,75.5928345-288.999939,765
						c0,0-48.6653442,211.6915283-273.000061,167c0,0-76.9401245-12.7557373-86.999939-97.9998779
						c-10.0598145-85.2443848,73.057251-158.831543,151.999939-67.0001221c0,0,33.2493896-197.3043823-148-138.999939
						C114.7507324,1067.3044434,149,1237,149,1237s19.3911133,205.2149658,288,260
						c0,0,246.1932373,233.4118652,468.999939-49.0001221c0,0,174.4146118,4.3594971,146.000061-345.9998779
						c0,0-10.2773438-148.6722412,72-242c0,0,146.8359375,80.6799316,433.9998779-171.000061
						C1557.9998779,688.999939,1609.7651367,264.052002,1187,269z"/>
				</g>
			</g>
		</g>
		<g>
			<g id="Knight_copy_9_">
				<g>
					<path class="st2" d="M2010,1887.9998779c0,0,58.8364258,83.5224609,5,205.0001221c0,0,51.1159668-8.8127441,63,28
						C2078,2121,2139.9406738,1996.4240723,2010,1887.9998779z M1516,1864c65.2530518,40.2502441,110,43.9998779,110,43.9998779
						C1536.9016113,1652.6655273,1280,1677,1280,1677l-52.0001221,28C1348.979248,1683.5703125,1412,1777.9998779,1412,1777.9998779
						C1368.4216309,1757.0981445,1337.9998779,1759,1337.9998779,1759C1460.6157227,1803.9942627,1522,2052,1522,2052
						c165.1220703,161.9899902,404,187,404,187c-54.8303223-13.3720703-115-65-115-65c66.9125977,27.2307129,121,22,121,22
						c2.9355469-48.779541,33-83,33-83C1569.5079346,2028.7939453,1516,1864,1516,1864z M2035,2139
						c-8.5157471-3.159668-42.2376709-1.5776367-58,69s37,84,37,84c41.9560547,5.4135742,51-59,51-59
						C2077.6870117,2153.9858398,2043.515625,2142.1591797,2035,2139z M1976,2025.9998779
						C1985.5101318,1964.3000488,1949,1912,1949,1912l-4,50.9998779c-183.9483643-37.0765381-345-175-345-175
						C1794.9018555,2000.3082275,1976,2025.9998779,1976,2025.9998779z M1900.4348145,1871.470459
						C1767.4401855,1844.6755371,1651,1745,1651,1745c140.9139404,153.4328613,271.8476563,172,271.8476563,172
						c6.8758545-44.5898438-19.5209961-82.3867188-19.5209961-82.3867188L1900.4348145,1871.470459z M1640,1114
						c0,0-52.8057861-2.2871094-42.0001221,48.9998779c10.8057861,51.2869873,71.0001221,23,71.0001221,23
						s-42.4133301,6.0327148-50-25S1640,1114,1640,1114z M1776,1140c0,0-17.8273926,33.2734375-45.6655273,66.9187012
						c11.5380859-14.4199219,18.1081543-32.0559082,21.6655273-48.9188232
						c8.2590332-39.1485596-24.1184082-98.4692383-89.0001221-100.9998779C1598.1182861,1054.4691162,1576,1122,1576,1122
						c64.9719238-54.7403564,104.3037109-27.6811523,124-10c19.6962891,17.6809082,18.161499,85.1485596-34,95
						c-52.161499,9.8511963-86-28-86-28s8.7290039,56.5178223,74,58.9998779
						c35.2763672,1.3414307,58.6298828-10.7030029,73.9526367-28.2332764
						C1714.0175781,1226.2744141,1697.7280273,1242.6481934,1680,1255l5,90c0,0-0.6015625,43.6525879,54,85.9998779
						C1793.6013184,1473.34729,1872.9998779,1545,1872.9998779,1545L1740,1490l237.9998779,180l-60-109.0001221L2063,1709
						c0,0,197.6762695-128.0074463,352-343.0001221C2415,1365.9998779,1992.4533691,1298.5373535,1776,1140z M1844,792.9998779
						c-191.3588867-9.2236328-314.2543945,99.5594482-376.0001221,193c-61.7456055,93.4405518-51.1563721,253.8009033-35,295
						L1559,1205l-88,10c0,0-11.6174316-366.47052,263-225c0,0-24.1612549,23.2318115-49,35
						c0,0,161.4016113,27.7490234,319-54.0001221c0,0-71.4171143,88.1697998-231.0001221,114.0001221l40,27.9998779
						c0,0,76.9061279-25.7637939,88.0001221-33.9998779c0,0-24.1088867,25.2468262-66,51c0,0,90.2121582,56.0058594,165,77l-23-80
						l-59.0001221-19.0001221l54.0001221-15l120,25c0,0,24.5053711-32.3441162,34-75c0,0,8.4680176,49.8914795,2,88
						c0,0,76.4101563,20.6065674,89,33.0001221l8,58.9998779L2091,1224c0,0,69.0537109,53.8024902,248,71.9998779L2264,1230
						c0,0-2.3837891-226.7590332-155-389.0001221L2101,885l20,67.9998779
						C2121,952.9998779,2035.3587646,802.2236328,1844,792.9998779z M1582.9998779,1652.9998779
						c159.4415283,73.626709,252.0001221,83,252.0001221,83C1730.583374,1708.4360352,1579,1614,1579,1614
						L1582.9998779,1652.9998779z M1760,1635c0,0-122.3182373-77.6608887-154-115l1,30.9998779
						C1607,1550.9998779,1646.3867188,1590.862793,1760,1635z M1547.9998779,1480.9998779c-28.5965576,11.7547607-10,40-10,40
						s-5.5313721-17.8099365,13.0001221-25S1581,1507,1581,1507S1576.5966797,1469.2453613,1547.9998779,1480.9998779z
						 M1512,1592.9998779c14.607666-5.8011475,30.9998779,10,30.9998779,10s1.3492432-38.7093506-32.9998779-25s-10,40-10,40
						S1497.3920898,1598.8010254,1512,1592.9998779z M1480,1485l-47.0001221-17.0001221L1399,1564l48,26l-24.0001221-31L1444,1485
						H1480z M1501,1342l30-56.0001221L1462.9998779,1329C1466.5126953,1362.4387207,1514,1437,1514,1437L1501,1342z M1392,1015
						c0,0,203.5454102-401.2158203,668-200C2060,815,1638.7644043,475.2930908,1392,1015z M1187,269
						c0,0-152.4655762,2.6522217-246.000061,111.9998779c0,0-324.9313354,75.5928345-288.999939,765
						c0,0-48.6653442,211.6915283-273.000061,167c0,0-76.9401245-12.7557373-86.999939-97.9998779
						c-10.0598145-85.2443848,73.057251-158.831543,151.999939-67.0001221c0,0,33.2493896-197.3043823-148-138.999939
						C114.7507324,1067.3044434,149,1237,149,1237s19.3911133,205.2149658,288,260
						c0,0,246.1932373,233.4118652,468.999939-49.0001221c0,0,174.4146118,4.3594971,146.000061-345.9998779
						c0,0-10.2773438-148.6722412,72-242c0,0,146.8359375,80.6799316,433.9998779-171.000061
						C1557.9998779,688.999939,1609.7651367,264.052002,1187,269z"/>
				</g>
			</g>
		</g>
	</g>
	<g id="Shading_1_">
		<defs>
			<path id="SVGID_1_" d="M1581,1507c0,0-4.4033203-37.7546387-33.0001221-26.0001221c-28.5965576,11.7547607-10,40-10,40
				s-5.5313721-17.8099365,13.0001221-25S1581,1507,1581,1507z M1851,1655l-27-12.0001221L1822.9998779,1667l30,8L1851,1655z
				 M1501,1342l30-56.0001221L1462.9998779,1329C1466.5126953,1362.4387207,1514,1437,1514,1437L1501,1342z M1480,1485
				l-47.0001221-17.0001221L1399,1564l48,26l-24.0001221-31L1444,1485H1480z M1512,1592.9998779
				c14.607666-5.8011475,30.9998779,10,30.9998779,10s1.3492432-38.7093506-32.9998779-25s-10,40-10,40
				S1497.3920898,1598.8010254,1512,1592.9998779z M1844,792.9998779
				c-191.3588867-9.2236328-314.2543945,99.5594482-376.0001221,193c-61.7456055,93.4405518-51.1563721,253.8009033-35,295
				L1559,1205l-88,10c0,0-11.6174316-366.47052,263-225c0,0-24.1612549,23.2318115-49,35c0,0,161.4016113,27.7490234,319-54.0001221
				c0,0-71.4171143,88.1697998-231.0001221,114.0001221l40,27.9998779c0,0,76.9061279-25.7637939,88.0001221-33.9998779
				c0,0-24.1088867,25.2468262-66,51c0,0,90.2121582,56.0058594,165,77l-23-80l-59.0001221-19.0001221l54.0001221-15l120,25
				c0,0,24.5053711-32.3441162,34-75c0,0,8.4680176,49.8914795,2,88c0,0,76.4101563,20.6065674,89,33.0001221l8,58.9998779
				L2091,1224c0,0,69.0537109,53.8024902,248,71.9998779L2264,1230c0,0-2.3837891-226.7590332-155-389.0001221L2101,885
				l20,67.9998779C2121,952.9998779,2035.3587646,802.2236328,1844,792.9998779z M1976,2025.9998779
				C1985.5101318,1964.3000488,1949,1912,1949,1912l-4,50.9998779c-183.9483643-37.0765381-345-175-345-175
				C1794.9018555,2000.3082275,1976,2025.9998779,1976,2025.9998779z M1900.4348145,1871.470459
				C1767.4401855,1844.6755371,1651,1745,1651,1745c140.9139404,153.4328613,271.8476563,172,271.8476563,172
				c6.8758545-44.5898438-19.5209961-82.3867188-19.5209961-82.3867188L1900.4348145,1871.470459z M1582.9998779,1652.9998779
				c159.4415283,73.626709,252.0001221,83,252.0001221,83C1730.583374,1708.4360352,1579,1614,1579,1614L1582.9998779,1652.9998779z
				 M2010,1887.9998779c0,0,58.8364258,83.5224609,5,205.0001221c0,0,51.1159668-8.8127441,63,28
				C2078,2121,2139.9406738,1996.4240723,2010,1887.9998779z M1776,1140c0,0-17.8273926,33.2734375-45.6655273,66.9187012
				c11.5380859-14.4199219,18.1081543-32.0559082,21.6655273-48.9188232
				c8.2590332-39.1485596-24.1184082-98.4692383-89.0001221-100.9998779C1598.1182861,1054.4691162,1576,1122,1576,1122
				c64.9719238-54.7403564,104.3037109-27.6811523,124-10c19.6962891,17.6809082,18.161499,85.1485596-34,95
				c-52.161499,9.8511963-86-28-86-28s8.7290039,56.5178223,74,58.9998779
				c35.2763672,1.3414307,58.6298828-10.7030029,73.9526367-28.2332764
				C1714.0175781,1226.2744141,1697.7280273,1242.6481934,1680,1255l5,90c0,0-0.6015625,43.6525879,54,85.9998779
				C1793.6013184,1473.34729,1872.9998779,1545,1872.9998779,1545L1740,1490l237.9998779,180l-60-109.0001221L2063,1709
				c0,0,197.6762695-128.0074463,352-343.0001221C2415,1365.9998779,1992.4533691,1298.5373535,1776,1140z M2035,2139
				c-8.5157471-3.159668-42.2376709-1.5776367-58,69s37,84,37,84c41.9560547,5.4135742,51-59,51-59
				C2077.6870117,2153.9858398,2043.515625,2142.1591797,2035,2139z M1606,1520l1,30.9998779
				c0,0,39.3867188,39.862915,153,84.0001221C1760,1635,1637.6817627,1557.3391113,1606,1520z M1640,1114
				c0,0-52.8057861-2.2871094-42.0001221,48.9998779c10.8057861,51.2869873,71.0001221,23,71.0001221,23
				s-42.4133301,6.0327148-50-25S1640,1114,1640,1114z M1392,1015c0,0,203.5454102-401.2158203,668-200
				C2060,815,1638.7644043,475.2930908,1392,1015z M1187,269c0,0-152.4655762,2.6522217-246.000061,111.9998779
				c0,0-324.9313354,75.5928345-288.999939,765c0,0-48.6653442,211.6915283-273.000061,167
				c0,0-76.9401245-12.7557373-86.999939-97.9998779c-10.0598145-85.2443848,73.057251-158.831543,151.999939-67.0001221
				c0,0,33.2493896-197.3043823-148-138.999939C114.7507324,1067.3044434,149,1237,149,1237s19.3911133,205.2149658,288,260
				c0,0,246.1932373,233.4118652,468.999939-49.0001221c0,0,174.4146118,4.3594971,146.000061-345.9998779
				c0,0-10.2773438-148.6722412,72-242c0,0,146.8359375,80.6799316,433.9998779-171.000061
				C1557.9998779,688.999939,1609.7651367,264.052002,1187,269z M1516,1864c65.2530518,40.2502441,110,43.9998779,110,43.9998779
				C1536.9016113,1652.6655273,1280,1677,1280,1677l-52.0001221,28C1348.979248,1683.5703125,1412,1777.9998779,1412,1777.9998779
				C1368.4216309,1757.0981445,1337.9998779,1759,1337.9998779,1759C1460.6157227,1803.9942627,1522,2052,1522,2052
				c165.1220703,161.9899902,404,187,404,187c-54.8303223-13.3720703-115-65-115-65c66.9125977,27.2307129,121,22,121,22
				c2.9355469-48.779541,33-83,33-83C1569.5079346,2028.7939453,1516,1864,1516,1864z M1589,1284l-21.0001221,48.9998779
				c0,0-1.9998779,111.0374756,5,107.0001221S1636,1495.9998779,1636,1495.9998779L1690,1479l-49-187L1589,1284z"/>
		</defs>
		<clipPath id="SVGID_2_">
			<use xlink:href="#SVGID_1_"  style="overflow:visible;"/>
		</clipPath>
		<g id="Vector_Art_Shine" class="st3">
			<g>
				<path class="st4" d="M1242.9998779,518.999939C1217.0733643,432.7890015,1110,405,1110,405l-257.0001221,11.999939
					L792,485.9998779C1037.0351563,402.5430298,1242.9998779,518.999939,1242.9998779,518.999939z M1299,675.9998779l13,1.000061
					c0,0-335.732605-110.8097534-312,315l2-5v-9.000061l3-20L1012.9998779,910l40-104.0001221l66.0001221-78l62-35L1236,675
					l41.9998779-1.000061L1299,675.9998779z M1559,691.999939l3.9998779-119.000061L1406,311.999939L1175,250l-31,22.9998779
					C1144,272.9998779,1458.6313477,309.3763428,1559,691.999939z M923.999939,1412.9998779
					c0,0,164.6453247-98.3195801,58.999939-400.999939C982.9998779,1011.999939,1042.0461426,1279.947998,923.999939,1412.9998779z
					 M462,1440.9998779c260.1016235,226.0882568,405-28,405-28C699.5958252,1597.5200195,462,1440.9998779,462,1440.9998779z
					 M758.999939,1032.9998779c-24.3060303,146.6536865-120,236.0001221-120,236.0001221
					C808.065979,1208.9764404,758.999939,1032.9998779,758.999939,1032.9998779z M990,680
					c0,0-260.9603882-11.5164185-279.000061,222.9998779C710.999939,902.9998779,768.05896,722.869873,990,680z M1260,585.9998779
					c0,0,171.5639648,3.4667969,196,128.000061C1456,713.999939,1482.0019531,559.3597412,1260,585.9998779z M1380,760.9998779
					c0,0-44.376709-13.8047485-66,10c-21.6234131,23.8048096-54,37-54,37c52.4553223-1.793396,60-20,60-20
					C1330.4429932,764.9597168,1380,760.9998779,1380,760.9998779z M1981,2114l-361-144l-103-105
					c-49.2381592-66.5219727-107-88-107-88l-58-28l-31,1.9998779L1427.9998779,1867L1496,1984
					c80.3955078,94.5773926,251,161,251,161c-30.748291-27.8625488-55-77-55-77c86.0174561,60.5217285,252,94,252,94L1981,2114z
					 M2237,1397.9998779l-3.0014648-1.6914063l-0.5024414,0.6561279L2237,1397.9998779z M2338,1409
					c-81.1621094,125.1347656-248,228-248,228l-12-35l33-45l122.4960938-160.0354004l-16.0090332-4.7298584L2216,1392
					l-202,175.9998779L1992,1520l106-149.0001221L2193,1385l24.4870605,7.2347412l12.8955078,2.0362549L1804,1154
					c44.6242676,86.3858643,135,136.9998779,135,136.9998779l107,52h9L2068,1347l-125.0001221,128.9998779
					C1869.7722168,1453.9216309,1842,1400,1842,1400c-2.8375244,21.0455322,48,107,48,107l62,78l99,87h52l56-12l99-96l88-150
					L2338,1409z M2235,1395l-4.6174316-0.7290039l3.6159668,2.0374756L2235,1395z M1967.9998779,1095L2015,1127.9998779L2118,1152
					l63-31.0001221L2198,1037l-30-101.0001221L2151,860l-60-37.0001221
					C2110.9462891,1043.0360107,1967.9998779,1095,1967.9998779,1095z M1464,1012.9998779
					c26.7983398-42.6348877,136.7299805-169.0759277,252-108.999939C1845.5522461,971.5195923,1956,945,1956,945l40-49.0001221
					l-96-110l-87.0001221-8l-153.9998779,33l-147,88.000061L1464,1012.9998779z M1652,1207.9998779
					c0,0,76.9255371,11.9127197,100-32.9998779v-80l-11-36l-121-21.0001221L1535,1097l17.9998779,55l40-35L1650,1102l30,58.9998779
					L1676,1190L1652,1207.9998779z M2012.9998779,2132L1965,2182l10,25c0,0,66.1602783-121.1096191,94,15l24-35l-35-65
					L2012.9998779,2132z"/>
			</g>
		</g>
		<g id="Vector_Art_Light" class="st5">
			<g>
				<path class="st4" d="M1522.9998779,801.999939c0,0,286.5281982-163.0787354,537.0001221,13.999939l25-30l-291-108
					l-293,86.000061L1522.9998779,801.999939z M1857,760.9998779l-121,11.000061l-66,40.999939L1759,815l22-44.0001221l73,3.000061
					l-32,43c0,0,222.5281982,30.1295776,118,132c0,0,80.1186523-6.0887451,112-96.000061L1857,760.9998779z M2125,1130.9998779
					L2132,1152l57,15.9998779l14,25L2177,1205l-47,2.9998779L2056,1204l30,46l106,40l153,25.9998779l5-43L2287,1232l-21-74.0001221
					l-71-275.999939l-70-25C2255.1252441,1113.814209,2125,1130.9998779,2125,1130.9998779z M1969,1199l50,26.9998779L2042,1165
					l-66-56l-60-1.0001221L1959,1140L1969,1199z M2004,970.9998779l-36.0001221,18.000061L1841,1037l-80,15.9998779L1750,1094
					l54,28.9998779l41-17L1892.9998779,1085C1892.9998779,1085,1996.2624512,1005.8283691,2004,970.9998779z M2338,1332l-401-105
					c0,0,23.661377,53.0112305,297,170.9998779l106,13c0,0-76.1013184,150.9013672-141,202c0,0-106.6635742,80.3216553-147,43
					c0,0-137.6292725-119.3273926-166-155.9998779c0,0,17.8825684,52.105835,55,90
					c37.1171875,37.894043,119,130.9998779,119,130.9998779L2278,1575l154-215L2338,1332z M1582,1154l10,31l23,14l34,5l32-14l-7-45
					l-26.0001221-43L1605,1109L1582,1154z M1682,1039l-62,5l-12.0001221,28c0,0,113.6409912-27.0634766,144.0001221,93
					l5.9998779-34.0001221l-16.9998779-53L1682,1039z M1756,1199l-24,81c0,0-17.164917,53.0328369,23,102.9998779l32,33
					L1777.9998779,1389L1761,1342l1-114.0001221L1756,1199z M2015,1567l-7.0001221-45L2078,1392l-116,125.9998779L2015,1567z
					 M2025,1580l68,59l-10-51.0001221l142-175L2025,1580z M1465,1632l67,10.9998779L1561,1570l-60-17.0001221L1465,1632z M1515,1470
					l-5,55.9998779L1559,1537l40-32l-11.0001221-54.0001221L1515,1470z M1521,1270.9998779l-74,45L1455,1392l55,57l27-16.0001221
					L1517.9998779,1352L1550,1277L1521,1270.9998779z M1561,1179l-90,36c0,0-49.8135986-93.5211182,63-324.0001221l-83,70l-40,147
					L1415,1277l12,20l67-27l71-44.0001221L1561,1179z M1900,1885.9998779v-15L1852.9998779,1844L1747,1770.9998779L1651,1744
					C1745.7678223,1844.2319336,1900,1885.9998779,1900,1885.9998779z M1601,1790
					c198.9421387,179.9622803,341.9998779,192.9998779,341.9998779,192.9998779L1945,1962l-326-175L1601,1790z M1457,1500.9998779
					L1486,1499l5-30l-65-18.0001221l-46,120l69,30l10-28L1442,1542L1457,1500.9998779z M1557.9998779,688.999939l6.0001221,20
					L1577.9998779,625L1546,480l-33.0001221-102.0001221l-115-98.9998779L1170,252l-55,20
					C1542.3808594,280.1904297,1557.9998779,688.999939,1557.9998779,688.999939z M1190,445
					c-64.3359375-64.0059204-249.000061-64.0001221-249.000061-64.0001221L860,398.999939l-56.000061,58
					C1026.2790527,377.1911621,1190,445,1190,445z M999.9653931,1003.0939941c0,0,44.918396-351.2519531,319.0879517-325.1983643
					C1319.0533447,677.8956299,1002.8991699,589.5837402,999.9653931,1003.0939941z"/>
			</g>
		</g>
		<g id="Vector_Art_Negative" class="st5">
			<g>
				<path class="st6" d="M1742,1327l45,90l-13-56.0001221c0,0-11.9078369-32.6623535,1-80L1786,1244l91.9998779,23
					L1755,1197.9998779L1742,1327z M1937.9998779,1290L1974,1340.9998779l-46.0001221,92l9.0001221,23l118-113L1937.9998779,1290z
					 M2092,1357l-95,162l9,11.9998779L2194,1384L2092,1357z M2232,1395.9998779L2068,1584l15,21.9998779L2335,1410
					L2232,1395.9998779z M1611,1304l-13.0001221-4c0,0,2.7344971,15.4020996-23.9998779,55l6,59c0,0,39.8481445,3.6235352,56,43
					c0,0,30.590332,16.2351074,34,28.9998779L1672,1470C1672,1470,1603.2563477,1401.0317383,1611,1304z M1824,1657.9998779
					L1851,1665l-20-16L1824,1657.9998779z M697,961.999939C662.3460693,1094.4787598,613.999939,970,613.999939,970
					L645,1165.9998779c0,0,68.6914063-66.6193848,97.9998779-188.999939s85-146.000061,85-146.000061
					S731.6537476,829.5211792,697,961.999939z M1122,862.9998779l55,11.000061c61.3728027-116.5504761,140-195,140-195
					C1236.0651855,693.6679077,1122,862.9998779,1122,862.9998779z M1206,558.999939
					c255.2512207-69.7719116,318,171.999939,318,171.999939l-46.0001221,37
					C1387.8654785,675.708313,1321,748.999939,1321,748.999939c84.3308105-19.569397,114,36.999939,114,36.999939l97-18
					l30.9998779-77C1420.5983887,413.5392456,1206,558.999939,1206,558.999939z M857,1320c78.8779907,125.9307861-32,210-32,210
					l75.999939-25l26.999939-60C903.3804321,1337.4464111,857,1320,857,1320z M393.999939,1370.9998779
					c0,0-29.6969604,53.2999268-16.000061,114.0001221l71.000061,22
					C448.999939,1507,398.822937,1464.3140869,393.999939,1370.9998779z M245,1105.9998779
					C221.5615234,1218.5114746,303.999939,1254,303.999939,1254l8.999939-65
					C259.2225952,1188.8969727,245,1105.9998779,245,1105.9998779z M1242.9998779,517.9998779
					C1270.1574707,309.1262817,972,338.999939,972,338.999939l-43.000061,43.999939
					C1175.4663086,365.0263672,1242.9998779,517.9998779,1242.9998779,517.9998779z M847.9998779,1003.999939
					C862.484436,1119.6938477,823.999939,1154,823.999939,1154c87.7443237-71.144165,67-142.000061,67-142.000061
					c-26.9417114-91.9818115,40-151.999939,40-151.999939S833.5155029,888.3059692,847.9998779,1003.999939z
					 M568.999939,1392.9998779c157.3570557,66.2177734,185-63.9998779,185-63.9998779
					C709.2799683,1412.815918,568.999939,1392.9998779,568.999939,1392.9998779z"/>
			</g>
		</g>
	</g>
</g>
<g id="Layer_4">
	<path d="M393.7131958,1239.4555664c0,0-0.0445862,0.0368652-2.4248047-0.6809082l-12.2981873,74.2236328l0.0655518,0.0126953
		L393.7131958,1239.4555664z"/>
</g>
</svg>
